<svg xmlns="http://www.w3.org/2000/svg" width="400" height="154.65"><g fill-rule="evenodd"><path d="m141.417 13.167-12.5.083-.084 1.75-.083 1.75-3.619.045-3.618.045-.048 1.448-.048 1.448-.667.143c-.367.078-1.642.119-2.833.09-1.886-.046-2.205-.014-2.459.239-.253.254-.641.292-2.958.292h-2.667l-.02.625c-.06 1.825-.116 2.52-.252 3.125l-.149.667-2.581.083-2.581.083-.046 2.288-.047 2.287-2.703.046-2.704.046-.046 2.458-.046 2.459H93.5v5h-5v2.323c0 2.779.203 2.57-2.583 2.677l-2.167.083-.046 2.36-.046 2.36-.871.107a26.82 26.82 0 0 0-1.329.195L81 49.86v4.627c0 5.642.2 5.225-2.468 5.149l-1.835-.053-.108 2.5a105.38 105.38 0 0 0-.057 5.334l.051 2.833 2.871.046 2.87.045.046-2.295.047-2.296 2.415-.054c1.328-.03 2.453-.093 2.5-.14.047-.048.06-2.698.029-5.89-.068-7.215-.408-6.479 3.018-6.537l2.704-.046.084-2.083c.107-2.686-.086-2.5 2.593-2.5H98v-.408c0-.225.131-.483.292-.573.248-.14.291-.42.291-1.883v-1.719l2.442-.046c3.06-.058 2.886.114 2.828-2.789-.06-2.993-.105-2.945 2.747-2.899 2.601.042 2.483.154 2.483-2.352 0-1.542.056-2.041.25-2.235.243-.243 3.057-.42 6.792-.427l1.208-.002.003-1.792c.003-2.79-.572-2.477 4.803-2.614 6.058-.156 5.5.107 5.681-2.678l.097-1.5 5.402-.044c6.35-.051 5.822.143 5.884-2.166l.047-1.761 3.25.021c1.787.012 3.306.025 3.375.028.069.003.126.774.128 1.714.001.94.061 1.801.134 1.915.101.16 2.333.217 9.872.25l9.741.043.047 2.123.046 2.122 5.037.045 5.037.044.046 2.225.047 2.226 3.828-.122 3.829-.122V38.1l5.953-.059c3.275-.033 5.964-.074 5.977-.092.013-.018.069-1.842.125-4.053l.102-4.02-1.037.028c-1.947.053-1.858.164-1.954-2.416l-.083-2.238-2.792-.046-2.791-.045v-.992h-3.788l-.106-.774c-.059-.425-.106-1.36-.106-2.078V20.01l-.542.029c-.298.015-1.87.013-3.494-.005L176.179 20l-.048-1.542-.048-1.541-5.208-.044-5.208-.044v-1.753c0-1.254-.06-1.773-.209-1.823-.388-.13-11.489-.17-24.041-.086m60.67 12.208c-.038.115-.092 1.166-.12 2.337l-.05 2.129 2.583-.045 2.583-.046.047-2.292.046-2.291h-2.51c-1.86 0-2.528.054-2.579.208m5.775 4.411c-.386.074-.387.083-.333 2.297.066 2.694-.228 2.429 2.745 2.474 3.076.046 2.893-.078 2.893 1.949v1.652l2.625.046 2.625.046.048 1.458.048 1.459h2.4c1.409 0 2.443.068 2.503.165.056.091.117 1.666.135 3.5.02 2.077.095 3.34.199 3.35.092.009 1.23.003 2.529-.013 2.902-.036 2.763-.178 2.61 2.667-.132 2.473-.295 2.325 2.564 2.328l2.204.003.046 2.125.047 2.125 2.44.046c2.829.053 2.637-.097 2.641 2.058.001.699.049 1.505.107 1.792l.104.52h2.219c1.221 0 2.243-.056 2.271-.125.028-.068.014-1.737-.032-3.708l-.083-3.583-2.417-.084-2.417-.083-.046-2.375-.046-2.375h-2.341c-2.96 0-2.794.157-2.853-2.691l-.047-2.226-2.333-.083-2.334-.083L228.5 42l-.083-2.417-2.084-.04c-3.118-.062-2.833.184-2.833-2.437v-2.221l-2.685-.1c-3.196-.119-2.869.128-2.977-2.252l-.088-1.95-2.333-.083c-2.264-.081-2.335-.094-2.387-.458-.052-.367-3.649-.545-5.168-.256m-11.967 11.461c-.145.378.003 11.307.157 11.545.103.159 1.415.208 5.625.208h5.49V41h-5.589c-4.785 0-5.602.036-5.683.247M102.78 54.442c-.062.063-.113 1.111-.113 2.331v2.218l-2.292.046-2.292.046.06 2.371.06 2.371-2.791.046-2.79.046.032 2.916c.018 1.605.089 2.974.158 3.044.069.07 2.746.108 5.949.084l5.822-.044.047-2.373.046-2.372 4.37-.044 4.371-.045V54.417l-5.262-.044c-2.894-.024-5.313.007-5.375.069m80.387 4.058c0 .092.187.167.416.167.23 0 .417-.075.417-.167 0-.092-.187-.167-.417-.167-.229 0-.416.075-.416.167M168.5 60.833v1.834h-.575c-.316 0-.635.101-.708.225-.074.123-.356.329-.627.458-.272.128-.668.496-.881.817-.213.32-.497.715-.631.877-.472.566-.341 4.137.172 4.69.229.248.417.517.417.598 0 .082.221.28.492.44.271.16.515.446.542.635.034.235.193.36.507.396.253.029.539.203.638.387.34.635 3.987.235 3.987-.439 0-.472.275-.706.917-.778.377-.042.501-.143.506-.407.003-.193.134-.48.291-.637.222-.222.286-.581.286-1.604 0-1.485.086-1.572 1.433-1.462l.651.054.166 1.387c.124 1.031.242 1.43.459 1.55.16.09.291.334.291.543 0 .376.34.634 1.125.854.246.069.375.233.375.477 0 .513.791.772 2.354.772 1.327 0 1.646-.149 1.646-.77 0-.267.128-.399.459-.475 1.034-.238 2.169-4.082 1.547-5.244a1.876 1.876 0 0 1-.172-.746c0-.267-.153-.524-.411-.693-.225-.148-.457-.419-.516-.602-.058-.184-.352-.437-.653-.562-.3-.126-.589-.34-.642-.477-.065-.17-.395-.263-1.061-.297l-.967-.051-.048-1.791-.047-1.792H168.5v1.833m92.208 23.042.042 18.375h24.5l.045-3.042.046-3.041h6.161l-.043-12.292-.042-12.292-3.042-.045-3.042-.046V65.5h-24.668l.043 18.375m39.959-15.379v2.996l-3.042.046-3.042.045v24.5l3.038.046 3.038.045.046 3.038.045 3.038h24.5l.045-3.038.046-3.038 3.038-.045 3.038-.046v-24.5l-3.042-.045-3.042-.046V65.5h-24.666v2.996m49.166 12.337v15.334h-9.166V90H334.5v6.167H340.659l.046 3.041.045 3.042 4.542.044 4.541.045v-6.172H356V65.5h-6.167v15.333m15.5-12.337v2.996l-3.041.046-3.042.045-.043 12.292-.042 12.292h6.168v6.166h24.5v-6.166H396.002l-.043-12.292-.042-12.292-3.042-.045-3.042-.046V65.5h-24.5v2.996M159 66.667c-.098.183-.287.333-.419.333-.312 0-.448.566-.383 1.594l.052.823h3.667l.049-1.403c.058-1.669.052-1.675-1.585-1.678-1.034-.002-1.228.044-1.381.331m126.333 17.251v12.251l-9.208-.043-9.208-.043-.043-12.208-.043-12.208h18.502v12.251m40-.001v12.25h-24.666v-24.5h24.666v12.25m64.5 0v12.25h-24.5v-24.5h24.5v12.25M69.292 75.792l-4.959.046V80.025l2.804-.041c1.542-.022 2.873-.003 2.958.043.085.046 1.28.067 2.655.048l5.115-.07c3.235-.045 2.968-.259 2.971 2.38.003 2.67-.061 2.564 1.566 2.6 1.484.032 1.598.07 1.598.525 0 .212.114.323.333.323.277 0 .334.111.334.656 0 .66.285.93.853.808.122-.026.247.115.277.312.033.214.216.4.451.459.218.055.446.256.507.448.077.244.208.322.437.262.235-.061.369.027.478.314.229.603-.637.584 24.58.536l23.667-.045v-2.166l-2.167-.045c-2.511-.052-2.583-.094-2.583-1.487V85H125.5v-4.214l-4.125.119c-5.217.15-32.668.301-33.157.182-.294-.071-.376-.228-.417-.796l-.051-.708-2.61-.008c-3.263-.011-3.14.07-3.14-2.07v-1.621l-1.625-.108c-.894-.059-2.638-.09-3.875-.069-1.238.021-4.481.059-7.208.085m-4.457 9.996c-.839.104-.83.047-.832 4.916L64 95.158l2.708.046 2.709.046.126 2.333c.069 1.284.168 3.177.218 4.209l.093 1.875h2.809c3.721 0 3.337-.376 3.337 3.267V110h2.717c3.234 0 3.116-.067 3.116 1.779v1.38l5.349-.107c6.253-.124 5.665-.354 5.634 2.198l-.022 1.833 2.645.016c9.147.055 8.327-.219 8.152 2.725l-.12 2 2.556.047 2.556.046.047 2.208c.033 1.596.103 2.211.25 2.217.112.005 1.166.001 2.343-.008 2.77-.022 2.61-.192 2.61 2.77v2.396h2.313c2.865 0 2.667-.225 2.725 3.095l.046 2.655 14.81.027c8.146.015 14.952.064 15.125.109.343.09.489 4.747.165 5.259-.122.192-2.255.219-13.123.167l-12.977-.062-.042 5.5c-.022 3.025-.076 5.594-.119 5.708-.058.153-.681.209-2.324.209-1.317 0-2.288.069-2.349.166-.068.111 6.943.167 20.907.167H160v-8.175l.417-.158c.416-.159.416-.162.416-2.413V141.5l1.792-.028c1.734-.027 2.385-.052 2.844-.111.206-.026.208-1.938.003-3.778l-.055-.5 1.162-.05c1.459-.063 1.415.023 1.418-2.819.004-2.917-.257-2.714 3.492-2.714h2.844v-5h5.495l.044-4.625.045-4.625 2.583-.083 2.583-.084.047-2.108c.057-2.597-.102-2.454 2.798-2.512l2.322-.046.047-2.239c.059-2.84-.104-2.677 2.682-2.681 3.107-.003 2.854.525 2.829-5.914-.008-2.05.156-1.94-2.808-1.881l-2.417.048-.048-1.748c-.06-2.212.133-2.085-3.169-2.085h-2.783l-.051-.625-.052-.625-3.282-.004c-17.292-.022-28.848.102-29.066.311-.066.062-.141.862-.167 1.778l-.048 1.665-2.572.046c-2.927.052-2.976.073-3.045 1.259l-.05.861-2.667.084-2.666.083-.114 1.72c-.153 2.294.006 2.179-3.112 2.234l-2.608.046-.048 1.375-.048 1.375h-15.723c-12.646 0-15.758-.042-15.902-.215-.098-.119-.201-.737-.229-1.375l-.05-1.16-4.833-.083c-5.537-.096-5.25-.02-5.251-1.385a19.672 19.672 0 0 0-.107-1.907l-.105-.875H89.82c-3.642 0-3.218.544-3.303-4.231l-.017-.981-5.312.098c-4.012.074-5.378.049-5.58-.102-.291-.219-.383-1.982-.18-3.492l.106-.792h-2.341c-2.799 0-2.56.252-2.681-2.823l-.095-2.427-2.5-.017c-1.375-.009-2.762.015-3.082.055m113.048 7.379c0 .504.032.71.07.458a3.702 3.702 0 0 0 0-.917c-.038-.252-.07-.046-.07.459m29.284 16.672c0 1.721-.055 2.357-.209 2.41-.184.063-1.917.123-8.745.303-2.258.06-2.022-.191-2.057 2.184l-.029 1.978 2.603-.034c1.749-.023 2.603.024 2.603.143 0 .118.959.177 2.884.177 3.534 0 3.283-.2 3.283 2.617v2.216h5.732c6.47 0 5.935.129 5.935-1.42 0-1.091.018-1.104 1.848-1.208l1.475-.084.459.523c.434.494.523.523 1.651.523 1.33 0 1.51.113 1.595.998.071.745.407.812 4.097.825L233 122v2.161c0 2.071.016 2.169.375 2.357.206.109.435.299.508.423.074.124.271.226.439.226.369 0 1.178 1.014 1.178 1.477 0 .198.15.381.369.451.202.064.508.294.678.511.171.217.418.394.548.394.131 0 .238.114.238.254s.182.323.404.408c.221.084.479.288.572.454.317.566.364-.122.319-4.702l-.045-4.497-2.583-.084-2.583-.083-.047-2.29c-.054-2.701.251-2.442-2.953-2.503l-2.167-.04-.047-2.081c-.058-2.57.147-2.403-3.086-2.503l-2.7-.083-.047-2.375-.046-2.375h-15.157v2.339M75.444 121.611c-.061.061-.111 1.144-.111 2.407 0 2.736.35 2.455-3.232 2.59l-2.934.111v2.287c0 2.829.21 2.64-3.012 2.698l-2.572.046-.014 2.367c-.02 3.085.146 2.913-2.741 2.85l-2.284-.05-.119 4.451c-.066 2.448-.072 4.529-.013 4.625.067.107 1.02.174 2.5.174h2.392l.122-.709c.067-.389.167-1.683.223-2.875l.101-2.166 1.083-.2c2.113-.39 2.728-.554 3.001-.801.151-.137.358-.249.459-.249.101 0 .234-.411.297-.912.134-1.073.231-1.174 1.422-1.477.753-.192.912-.298.949-.629.107-.96.446-1.678.903-1.915.415-.215.469-.334.469-1.04 0-1.479-.503-1.381 7.506-1.462 5.501-.055 7.12-.119 7.288-.288.141-.141.259-.969.337-2.372l.119-2.155 2.5-.045c2.111-.037 2.533-.088 2.709-.323.284-.381.291-4.566.008-4.849-.218-.218-17.14-.304-17.356-.089m115.223 2.625c0 2.891-.207 2.68 2.631 2.684 2.626.004 2.402.276 2.333-2.837l-.048-2.166-2.458-.046-2.458-.047v2.412M99.18 137.067c-.237.285-.215 3.16.029 3.766.092.23.155 1.186.142 2.125-.014.94.019 1.709.073 1.709.57 0 .683-.326.529-1.521-.204-1.582-.204-1.583 2.656-1.68 1.968-.066 2.302-.118 2.498-.387.297-.406.319-3.753.026-4.046-.309-.309-5.694-.278-5.953.034m72.772 6.621c.043 2.437-.179 2.217 1.994 1.98.992-.108 2.179-.171 2.637-.14l.834.055.046 2.375.046 2.375h7.502l-.047-1.875-.047-1.875-2.551-.046-2.55-.046.05-2.412.051-2.413h-8l.035 2.022m-71.249.202c-.577.32-.273.443 1.093.443 1.062 0 1.225-.037 1.138-.263a1.735 1.735 0 0 1-.101-.334c0-.166-1.785-.038-2.13.154" fill="#e9efec"/><path d="M48.645 3.031c-.256.359-.313.552-.178.597.24.08.271 1.039.033 1.039-.092 0-.167.172-.167.383 0 .532-.304.783-.95.783-.302 0-.55.075-.55.167 0 .246-3.593.215-3.993-.034-.581-.363-.959.197-1.035 1.531-.103 1.823-.128 1.836-3.43 1.836-2.689 0-4.089.309-3.381.747.222.137.227 1.587.006 1.587-.092 0-.167.15-.167.333 0 .222-.111.333-.333.333-.183 0-.333.075-.333.167 0 .094-.473.167-1.084.167-.611 0-1.083.072-1.083.166 0 .092-.095.167-.212.167-.149 0-.21.317-.208 1.081.005 1.492-.425 1.917-1.948 1.924-1.321.007-1.78.288-1.493.917.63 1.383-.319 2.541-2.139 2.613-1.289.05-1.751.448-1.181 1.018.227.227.238.947.014.947-.091 0-.166.195-.166.432 0 .292-.108.461-.334.52-.183.048-.333.153-.333.234 0 .081-.595.147-1.321.147h-1.322l.013 1.237c.013 1.283-.198 1.763-.775 1.763-.144 0-.262.075-.262.167 0 .249-1.624.209-1.711-.042-.053-.15-.174-.119-.431.109-.34.303-.358.461-.358 3.272 0 3.468.095 3.295-1.841 3.362-1.496.052-1.757.257-1.401 1.103.225.533.185 4.417-.05 4.892-.25.508-.816.686-2.006.631-1.275-.059-1.368-.031-1.368.413 0 .224.075.453.166.51.228.14.228 10.36 0 10.5-.091.057-.166.249-.166.427 0 .308.141.323 3.006.323h3.005l-.019-4.665c-.023-5.485-.129-5.168 1.725-5.168 1.314 0 1.901-.282 1.476-.707-.273-.273-.267-5.153.007-5.427.11-.11.368-.2.573-.2.206 0 .42-.075.477-.166.149-.242 1.374-.207 1.466.041.055.147.187.104.446-.144.353-.339.367-.467.346-3.225-.027-3.487-.109-3.339 1.845-3.339H27v-1.397c0-1.762.187-1.936 2.077-1.936h1.256v-1.305c0-1.73.274-2.029 1.86-2.029 1.413 0 1.606-.201 1.674-1.741.06-1.398.435-1.726 1.989-1.746 1.081-.015 1.138-.091 1.298-1.75.142-1.465.386-1.568 3.725-1.584L43.508 15l.169-.444c.093-.244.119-.772.059-1.173-.121-.806.209-1.383.79-1.383.169 0 .307-.075.307-.167 0-.091.135-.166.3-.166a.82.82 0 0 0 .504-.204c.162-.162.274-.162.532 0 .203.126.979.204 2.05.204 2.075 0 2.448-.232 2.448-1.52 0-1.971.199-2.044 5.385-1.996 5.266.048 4.781.336 4.781-2.838v-2.48h-5.656c-3.592 0-5.695-.061-5.76-.166-.176-.284-.379-.188-.772.364M128 9.883c0 1.372-.066 2.116-.2 2.25-.149.15-2.044.2-7.5.2H113V13.8c0 1.936.109 1.867-2.925 1.867h-2.525l-.096 1.931c-.114 2.323.036 2.152-1.884 2.152h-1.569L104 20.857c0 1.364.119 1.31-2.847 1.31h-2.32v1.383c0 1.826.064 1.783-2.678 1.783h-2.278l-.103.625c-.057.344-.104 1.267-.105 2.05-.003 1.885.091 1.825-2.864 1.825h-2.461l-.047 2.026-.047 2.026-2.375-.037-2.375-.037v3.748c0 4.728.239 4.274-2.247 4.274-2.513 0-2.396-.119-2.456 2.511l-.047 2.073-1.204.049-1.203.048-.047 2.285-.046 2.284-1.954-.004-1.955-.004-.045 2.587-.046 2.588-.852.05-.852.049.057 1.117c.262 5.11.182 13.215-.133 13.383-.21.113-2.147.166-5.44.15a540.306 540.306 0 0 0-5.316-.012c-.154.01-.178.53-.101 2.155.139 2.891.17 2.858-2.696 2.858h-2.084v19.99l2.125.047 2.125.046.047 2.125.047 2.125h2.135c2.739 0 2.688-.045 2.688 2.388v1.779l1.125.02c.619.011 1.184.01 1.257-.003.639-.106.785.31.785 2.239v1.911h1.99c2.372 0 2.21-.156 2.426 2.333l.167 1.917 1.968.018c2.413.022 2.303-.091 2.246 2.329l-.047 1.986-3.62.045-3.62.045-.047 2.122-.047 2.121-2.458.046-2.458.047v2.323c0 2.825.169 2.668-2.867 2.668h-2.223l-.053 2.375c-.064 2.847.232 2.524-2.412 2.625l-2.195.083.058.583c.033.321.006 1.575-.058 2.787l-.117 2.203-1.942.047c-1.068.026-1.923.103-1.9.172.023.068.042 3.912.042 8.541v8.417h8.13l.107-9.125c.127-10.797.238-13.32.596-13.546.138-.086 1.207-.158 2.375-.16l2.125-.002v-2.218c0-3.012-.172-2.845 3.028-2.949l2.556-.083.019-2.113c.026-2.909-.296-2.637 3.128-2.637 2.179 0 2.926-.053 2.977-.209.125-.373 20.972-.244 22.982.142l.44.085.144 2.366.143 2.366 2.333.044c2.888.055 2.75-.076 2.75 2.622 0 2.7.118 2.581-2.672 2.702-2.677.116-2.489-.085-2.492 2.663-.003 2.603.259 2.356-2.541 2.399-1.249.02-2.342.081-2.428.136-.092.059-.189 3.663-.235 8.809l-.08 8.708h5.97l-.084-1.792c-.189-4.008-.424-14.833-.336-15.416l.094-.625H104l.003-2.209c.003-2.662-.001-2.654 1.443-2.815 3.359-.373 3.475-.293 3.321 2.283-.165 2.765-.2 2.719 2.102 2.777l1.881.047v3.583c0 1.971-.049 5.965-.109 8.875l-.108 5.292h2.632c2.186 0 2.649-.042 2.729-.25.078-.204.488-.25 2.226-.253 2.9-.003 2.62.632 2.484-5.649-.08-3.691-.06-5.452.063-5.681.176-.329.35-.334 13.072-.334h12.894l.069-2.208c.037-1.215.004-2.283-.075-2.375-.095-.11-5.162-.146-14.804-.106-11.452.047-14.715.015-14.909-.146-.199-.165-.247-.7-.247-2.735 0-3.137.191-2.93-2.7-2.93h-2.3v-2.482c0-2.948.279-2.684-2.847-2.684h-2.32l-.016-.459c-.009-.252-.028-1.283-.042-2.291l-.025-1.834-2.584-.083-2.583-.083-.046-2.206-.047-2.206-5.287-.044-5.287-.044-.047-1.949c-.058-2.415.504-2.21-5.659-2.057-5.771.143-5.377.266-5.377-1.681v-1.397h-2.833c-1.559 0-2.848-.018-2.866-.041-.018-.023-.074-1.458-.125-3.189l-.093-3.147-2.947.032c-3.516.037-3.303.193-3.303-2.409v-1.777l-2.306.119c-3.25.168-3.035.325-3.044-2.225a862.268 862.268 0 0 0-.084-7.028c-.092-5.967-.519-5.335 3.6-5.335 3.778 0 3.5-.204 3.504 2.575.003 2.772-.197 2.57 2.575 2.601l2.319.027-.046-2.56c-.058-3.205.2-2.958-3.16-3.014l-2.774-.045-.084-2.308-.083-2.308-2.689.023c-3.375.029-3.228.133-3.225-2.294.001-.979.047-1.949.103-2.156l.101-.377 9.188.043 9.189.043.047 1.792.047 1.792H87.98l.112.752.113.753 18.546-.008c18.125-.008 18.548-.016 18.63-.328.118-.45.152-4.389.041-4.679-.078-.204-1.006-.234-6.215-.196-3.368.024-11.824-.014-18.79-.084L87.75 75.25l-.083-2.333-.084-2.334-5.451-.021c-2.999-.012-5.567-.066-5.709-.12-.308-.118-.397-8.442-.09-8.442.098 0 .167-.558.167-1.34v-1.34l1.912.114c2.648.158 2.421.626 2.423-4.996l.001-4.688.449-.208c.246-.115.846-.209 1.332-.209h.883l.002-2.125c.004-3.05-.194-2.802 2.181-2.736 2.616.073 2.484.214 2.484-2.649 0-2.759-.207-2.549 2.623-2.656l2.207-.084.056-2.115c.075-2.782-.087-2.635 2.884-2.635h2.396v-2.3c0-2.892-.21-2.7 2.95-2.7h2.55V27.2c0-2.682-.158-2.533 2.687-2.533 3.049 0 2.813.18 2.813-2.151 0-2.497-.191-2.349 3.057-2.349 2.149 0 2.692-.047 2.842-.247.146-.195.788-.261 3.101-.321 1.605-.042 2.933-.081 2.952-.088.02-.006.057-.667.084-1.469l.048-1.459 3.541-.045 3.542-.045v-1.63c0-1.045.072-1.701.2-1.83.153-.153 4.526-.2 18.667-.2h18.466V16.5h5.147c5.947 0 5.485-.153 5.554 1.842l.049 1.408 3.456-.064c2.709-.051 3.513-.017 3.723.157.183.152.806.225 1.961.231l1.694.009v2.109c0 2.683-.35 2.419 3.341 2.523 2.571.073 2.408-.079 2.41 2.253l.001 1.949.897.012c.626.009 1.169.15 1.791.464.862.435.975.45 3.226.404l2.334-.047.13-2.24c.169-2.881-.051-2.695 3.102-2.639l2.601.046.083 2.166.084 2.167 2.965.046c2.431.037 2.982.089 3.059.291.077.2.512.246 2.327.246 1.228 0 2.239.019 2.246.042.008.023.066.993.13 2.157.139 2.572-.192 2.3 2.964 2.437l2.642.114.085 2.215c.102 2.686-.07 2.529 2.79 2.533l2.208.002v4.834l2.209.002c1.214.002 2.298.06 2.407.13.17.107.373 2.423.383 4.368l.002.416h2.244c2.865 0 2.72-.141 2.777 2.709L238.9 54l1.592.001c.875.001 1.974.048 2.441.104l.85.102.095 4.833c.053 2.727.165 4.903.255 4.993.088.088 1.183.203 2.432.255l2.273.095-.044 5.35-.044 5.35-2.458.046c-1.902.036-2.462-.002-2.472-.166a110.59 110.59 0 0 1 .012-2.338l.025-2.125h-2.506c-3.085 0-2.945.135-2.793-2.7l.106-1.967-2.124-.028a123.16 123.16 0 0 1-2.396-.047c-.429-.029-.786-.409-.842-.895l-.052-.446-2.417-.084-2.416-.083-.046-2.458-.047-2.459h-2.912c-1.602 0-2.93.019-2.952.042-.021.023-.077 9.867-.125 21.875l-.085 21.833-10.238.038c-6.704.025-10.297.097-10.408.209-.102.102-1.258.17-2.887.17H196l-.003 1.792c-.003 2.428-.167 2.538-3.789 2.54l-1.541.001v2.23c0 2.791.131 2.657-2.639 2.702-1.161.019-2.205.042-2.32.051-.154.013-.209.547-.211 2.059-.003 2.7.184 2.527-2.805 2.6l-2.489.06-.112 4.441c-.062 2.442-.154 4.553-.204 4.691-.051.137-.078 1.15-.062 2.25.042 2.806.277 2.583-2.726 2.583-1.424 0-2.604.071-2.695.163-.089.089-1.472.183-3.075.208l-2.912.046-.046 2.541-.046 2.542h5.837c4.543 0 5.845.046 5.869.208.017.115.054 1.109.081 2.209.028 1.1.092 3.087.143 4.416l.094 2.417 1.621-.052c.891-.028 1.994.011 2.45.087l.83.139.083 3.413.084 3.413 2.326.047c2.456.049 2.672.12 2.505.828l-.088.375H196v-.417c0-.485.179-.455-2.583-.429-2.832.028-2.6.348-2.546-3.499l.046-3.238h10.333l.098 2.376c.119 2.87-.131 2.618 2.625 2.651 1.252.015 2.446.034 2.652.042.354.013.375.083.375 1.264v1.25h6.013l-.048-1.375-.048-1.375-2.743-.046c-3.272-.055-3.002.199-3.005-2.825l-.002-2.371-2.709-.046-2.708-.045-.131-2.5c-.071-1.375-.184-6.925-.25-12.334l-.119-9.833-.75.035-1.667.079a11.61 11.61 0 0 1-1.855-.098l-.939-.141-.102 5.063c-.057 2.784-.13 6.992-.164 9.351-.044 3.128-.117 4.357-.27 4.541-.227.273-10.161.398-10.177.128-.277-4.88-.372-16.531-.145-17.808l.219-1.233.758-.021c.417-.011 1.546-.067 2.509-.125l1.75-.104.047-2.16c.056-2.614-.127-2.457 2.706-2.322 2.794.134 2.639.279 2.7-2.529l.047-2.156 2.666-.083 2.667-.084.083-2.333.084-2.333 2.724-.03c1.498-.017 2.763-.069 2.81-.116.124-.123 15.808-.123 15.932.001.057.056 1.225.112 2.596.124 2.978.025 2.645-.26 2.718 2.321.074 2.595-.101 2.444 2.827 2.447 2.694.003 2.476-.224 2.476 2.584v2.055l2.486.057c2.991.068 2.746-.15 2.847 2.528l.084 2.195 2.375.047 2.375.046v-9.189l-2.575.022c-3.198.027-2.925.263-2.925-2.539v-2.343l-4.673.061c-3.575.048-4.702.014-4.799-.143-.07-.113-.101-1.951-.07-4.084.069-4.566-.262-4.1 2.917-4.116l2.291-.012v-1.55c0-2.1-.375-1.95 4.867-1.95h4.467V85.5H238.028l.006 2.125.006 2.125-1.895.048c-2.849.073-2.627.267-2.682-2.342l-.046-2.206-2.457-.046c-2.382-.045-2.459-.057-2.547-.417-.163-.667-.007-8.673.17-8.731.137-.044 3.801 2.881 4.084 3.26.046.061 1.171 1.08 2.5 2.263 1.329 1.184 2.471 2.232 2.539 2.328.067.097.123-.702.125-1.776.003-2.441-.219-2.302 3.469-2.177l2.867.097v1.735c0 2.642-.742 2.381 6.75 2.381 5.939 0 6.414-.022 6.535-.292.072-.16.111-4.283.087-9.162l-.045-8.87-2.122-.046-2.122-.047-.041-2.333c-.058-3.348.157-3.044-2.166-3.07-2.462-.028-2.376.067-2.376-2.619 0-1.181-.071-2.085-.167-2.145-.097-.059-.167-.974-.167-2.176v-2.074h-2.153c-2.913 0-2.68.204-2.68-2.346v-2.145l-2.458-.046-2.459-.046-.083-2.25-.083-2.25-2.25-.083-2.25-.084-.047-1.875-.048-1.875h-2.147c-2.894 0-2.675.179-2.675-2.18v-1.978l-2.542-.046-2.541-.046-.047-2.125-.047-2.125h-2.552c-3.239 0-3.104.111-3.104-2.554v-1.946h-2.384c-3.013 0-2.874.144-2.537-2.621l.065-.538-2.864-.045-2.864-.046-.049-1.208-.049-1.208h-8.126c-6.098 0-8.176-.05-8.326-.2-.131-.132-.2-.828-.2-2.026v-1.826l-3.541.109c-4.29.132-4.042.24-4.042-1.761v-1.546l-5.902-.044c-3.935-.029-5.975-.104-6.12-.225-.152-.126-.232-.79-.265-2.206l-.046-2.025-21.459-.043L128 7.832v2.051m-76.138 9.832c-.098.119-.201.731-.229 1.362-.071 1.631-.283 1.733-3.739 1.794-2.347.041-2.627.077-2.793.359-.139.236-.133.331.024.389.83.302-.114 2.214-1.093 2.214-.256 0-.565.094-.686.209-.177.166-.236.166-.297 0-.091-.247-.882-.284-.882-.042 0 .092-.103.167-.228.167-.179 0-.21.251-.144 1.173.117 1.635-.207 1.993-1.799 1.993-1.105 0-2.134.459-1.671.745.096.06.175.482.175.939 0 1.285-.454 1.65-2.055 1.65-1.309 0-1.896.282-1.471.707.467.467.057 2.289-.516 2.291-.16.001-.291.077-.291.168 0 .097-.543.167-1.296.167h-1.296l.065 2.844c.08 3.489.002 3.656-1.719 3.656-1.46 0-2.484.632-1.754 1.083.102.064.166 1.443.166 3.584 0 2.14-.064 3.52-.166 3.583-.092.057-.167.249-.167.427 0 .307.141.323 2.917.323h2.916v-2.967c0-3.482-.056-3.366 1.629-3.366 1.755 0 1.705.104 1.705-3.488v-3.012h.406c.224 0 .454-.075.51-.167.057-.092.624-.167 1.26-.167H40.5v-.716c0-.394-.079-.796-.176-.893-.276-.276.364-1.295.856-1.363.222-.031.475-.125.562-.208.087-.084.589-.153 1.115-.153 1.161 0 1.18-.026.941-1.308-.267-1.438.104-1.859 1.64-1.859 1.644 0 1.929-.2 1.889-1.324-.072-2.007-.069-2.009 3.59-2.009 3.135 0 3.083.025 3.083-1.503 0-1.754.15-1.83 3.597-1.83 3.494 0 3.236.244 3.236-3.072V19.5h-4.396c-3.389 0-4.437.049-4.575.215m152.036 10.409-2.352.052-.119 2.349c-.066 1.292-.055 2.413.023 2.491.078.078 1.415.163 2.971.188l2.829.046.046 2.743c.055 3.28-.209 3.009 2.912 2.993l2.459-.012v-6.141h-2.487c-3.307 0-3.013.246-3.013-2.517V30l-.459.037c-.252.02-1.516.059-2.81.087M51.667 36.573c0 .316.075.62.166.677.206.127.223 1.25.02 1.25-.081 0-.184.139-.228.308-.097.37-.757.525-2.229.525-1.048 0-1.549.513-.896.917.092.057.167.436.167.843s-.075.74-.167.74c-.092 0-.167.15-.167.334 0 .305-.111.333-1.344.333-.739 0-1.489.078-1.667.173-.334.179-.448.66-.155.66.245 0 .224 7.21-.022 7.456-.595.595-.073.721 2.79.673l2.777-.045-.033-2.888c-.039-3.497-.11-3.362 1.77-3.362 1.592 0 2.117-.256 1.747-.849-.108-.172-.196-.684-.196-1.138 0-1.374.307-1.495 3.92-1.551l2.963-.046-.036-2.541c-.025-1.807.02-2.542.154-2.542.114 0 .09-.099-.061-.25-.209-.21-.973-.25-4.761-.25h-4.512v.573m166.538 13.428.045 3.177 2.125.053c2.664.068 2.477.325 2.421-3.336l-.046-2.978-2.295-.047-2.296-.046.046 3.177m-52.114 2.082c-.051.55-.112 1.3-.134 1.667l-.04.667-2.209.046-2.208.047v2.156c0 2.606.104 2.501-2.484 2.501h-1.84l-.046 2.375-.047 2.375-1.748.048c-.961.026-1.808.108-1.882.182-.16.16-.168 11.292-.011 16.228l.11 3.458h1.69c2.029 0 2.091.044 2.094 1.492.004 1.904-.084 1.824 2.057 1.878l1.857.047.083 1.583.084 1.584 2.333.083 2.333.083.047 1.875.048 1.875H177.333v-1.716c0-2.19-.085-2.117 2.472-2.117h2.071l-.116-1.488c-.144-1.835-.131-1.845 2.229-1.845h1.678v-3l1.875-.025c1.031-.014 1.987-.04 2.125-.059.137-.018.381-.045.541-.058.275-.024.292-.616.292-9.9V64.25l-1.504.058c-.966.038-1.587-.009-1.734-.132-.174-.144-.248-.138-.305.025-.056.161-.167.134-.433-.102-.335-.298-.357-.471-.357-2.791v-2.475h-1.824c-2.156 0-2.045.111-2.023-2.016.024-2.391.103-2.317-2.459-2.317-2.593 0-2.528.049-2.528-1.91v-1.51l-5.574.001-5.575.001-.093 1.001M87.61 53.75c-.305.727-.344 5.86-.042 5.573.237-.225.267-.643.228-3.083-.028-1.719-.101-2.693-.186-2.49m154.017-.135a1.836 1.836 0 0 1-.667.003c-.207-.04-.077-.074.29-.076.367-.002.536.031.377.073m-61.608 5.51c.106.272.14 1.017.084 1.831-.106 1.536.052 1.721 1.259 1.48.4-.08.601-.019.895.272.56.556.876.792 1.058.792.089 0 .21.15.268.333.059.184.174.334.257.334.847 0 1.059 5.227.251 6.187-.233.278-.424.576-.424.663 0 .087-.182.227-.403.311-.222.084-.504.364-.628.621-.601 1.254-4.239 1.111-4.563-.18-.07-.278-.217-.394-.502-.394-.514 0-.904-.322-.904-.746 0-.182-.188-.479-.417-.659-.382-.3-.417-.438-.417-1.649V67h-1.666v1.32c0 1.452-.091 1.847-.424 1.847-.128 0-.244.228-.274.541-.048.495-.107.547-.677.594-.516.042-.626.116-.628.416-.005.776-.836 1.115-2.728 1.115-1.339 0-1.936-.178-1.936-.578 0-.13-.202-.256-.457-.286-.305-.035-.53-.205-.676-.511-.12-.252-.308-.463-.418-.468-1.397-.073-1.884-5.532-.611-6.863.135-.141.387-.453.56-.692.174-.239.447-.435.608-.435.16 0 .335-.113.388-.25.06-.157.315-.25.684-.25h.589v-1.806c0-.993.05-1.855.111-1.916.061-.061 2.688-.111 5.837-.111h5.727l.177.458m-18.007 7.184c.433.351.484 1.128.24 3.691-.159 1.677-.142 1.661-1.802 1.664-1.815.004-2.207-.224-2.352-1.365-.374-2.949-.304-3.41.606-3.965.754-.46 2.752-.475 3.308-.025M81.688 90.128c-.09.167-.181 1.275-.204 2.463l-.04 2.159 2.68.046 2.68.045.11-1.212c.06-.667.08-1.7.045-2.296l-.064-1.083-2.323-.083c-1.277-.046-2.412-.142-2.522-.213-.121-.079-.264-.01-.362.174m67.104-.003-2.292.051-.002 2.037c-.004 3.067.291 2.787-2.934 2.787h-2.731v2.49c0 3.017.34 2.741-3.5 2.837-2.239.057-2.787.106-2 .18.596.056-7.241.098-17.416.094-10.175-.005-16.738-.05-14.584-.101l3.917-.093-2.5-.078c-1.375-.044-3.213-.055-4.083-.027-.871.029-1.827.007-2.125-.049l-.542-.101v-5.149l-5.582.04-5.583.04-.001 2.441c-.001 2.92-.351 2.643 3.336 2.643 3.305 0 3.085-.153 3.023 2.096-.061 2.231-.494 2.057 5.238 2.109l4.819.045.049 1.215c.046 1.125.08 1.227.469 1.375.257.098 6.346.16 15.66.16h15.239v-1.217c0-1.66-.083-1.617 3.111-1.617h2.711l.047-1.958.047-1.958 2.709-.046 2.708-.046v-.709c0-.39.12-.88.267-1.089.183-.262.282-.836.314-1.829l.048-1.448 2.46-.029c2.96-.035 2.739.195 2.742-2.846.002-2.363 0-2.375-.373-2.338-.206.02-1.406.059-2.666.088m2.642 7.64c-.142.371-.131.402.149.402.138 0 .25-.108.25-.24 0-.353-.282-.468-.399-.162m92.399 39.697c0 12.07-.047 15.852-.2 16.005-.133.133-.87.2-2.216.2-2.009 0-2.417.104-2.417.616 0 .173.978.217 4.83.217h4.829l.046-3.208.045-3.209 2.125-.046 2.125-.047v-21.323h-1.99c-2.412 0-2.26.179-2.26-2.667v-2.25l-2.458-.046-2.459-.046v15.804" fill="#0a0704"/><path d="M0 77.25v77.25H49.859l-.041-8.598c-.034-7.268-.004-8.621.196-8.747.13-.083 1.005-.151 1.944-.152l1.709-.003v-2.633c0-3.24-.173-3.034 2.529-3.034h2.128l.047-2.458.046-2.458 2.416-.084 2.417-.083.046-2.29c.055-2.701-.25-2.442 2.954-2.503l2.167-.04.083-2.084.083-2.083 3.584-.083 3.583-.084v-3.833l-1.997-.047c-2.418-.058-2.28.07-2.403-2.229-.118-2.219.032-2.098-2.642-2.124L67 108.833v-4h-1.494c-1.834 0-1.839-.007-1.839-2.312 0-2.006.168-1.873-2.517-1.982l-2.15-.087v-1.956c0-2.45.083-2.368-2.366-2.312l-1.884.044-.043-10.197-.043-10.198 1.793-.028c2.452-.039 2.433-.038 2.668-.19.15-.097.208-.779.208-2.44 0-1.821.049-2.325.233-2.395.128-.05 2.618-.095 5.533-.101 2.915-.006 5.355-.067 5.423-.137.068-.069.056-.875-.027-1.792-.082-.917-.152-4.123-.156-7.125l-.006-5.458H72.158l.046-2.625.046-2.625 1.958.035 1.959.036V46.333h2.5v-2.095c0-2.676-.101-2.571 2.47-2.571 2.437 0 2.22.421 2.186-4.243l-.026-3.674 2.435-.046 2.435-.046V29.5h5.16l.106-.423a2.53 2.53 0 0 0 .006-.924c-.055-.275-.053-1.06.005-1.744l.105-1.242h2.359c2.846 0 2.759.059 2.759-1.867v-1.467h5.151l.049-1.125.05-1.125 1.25.043c2.104.072 2 .178 2-2.025 0-2.377-.17-2.248 3.011-2.305l2.572-.046.048-1.542.048-1.541 2.619-.001c1.44 0 4.812-.049 7.493-.11l4.875-.11V7.665l21.709.043 21.708.042.046 2.172.047 2.172 5.937.052c7.153.061 6.429-.148 6.36 1.836l-.057 1.601h1.5c.825 0 2.475-.037 3.667-.083l2.167-.083.047 1.91c.029 1.166.119 1.955.232 2.024.101.063 3.787.12 8.19.128 4.403.007 8.064.071 8.134.142.071.071.152.616.18 1.212l.05 1.084h5.667v3.166l2.458.046 2.458.047v2.061c0 2.468-.269 2.263 2.981 2.263 3.026 0 2.853-.149 2.853 2.446v2.045l2.541.046 2.542.046v3.834l2.333.083 2.334.083.047 1.954.046 1.954 2.287.046 2.286.046.084 2.25.083 2.25 2.458.046 2.459.047V50.991l2.375.046 2.375.046.047 2.077c.034 1.517.111 2.147.286 2.34.176.195.252.834.286 2.424l.047 2.159 2.016.047c2.537.059 2.438-.074 2.369 3.168l-.051 2.369h4.252l-.043 9.291-.043 9.292-6.465.044c-7.811.052-7.118.268-7.118-2.22v-1.915l-2.958.045-2.959.046-.031 2.537-.032 2.538 2.615.046 2.615.046v10.5l-4.463.044-4.464.044-.161.425c-.089.234-.162 1.012-.162 1.73 0 1.591.159 1.507-2.847 1.507h-2.32v7.833h9.5v4.833h5.5v9.167h2.49c2.948 0 2.696-.243 2.732 2.631l.028 2.286 2.043.046 2.043.047-.043 10.787-.043 10.786-2.083.084-2.083.083-.046 3.125-.045 3.125H400V0H0v77.25M49.598 2.498c.099.099 2.359.181 5.741.208l5.578.044.046 2.549c.037 2.054-.001 2.596-.197 2.792-.296.296-7.911.364-8.202.073-.556-.556-1.731.861-1.731 2.089 0 .54-.103.805-.451 1.153l-.451.45-2.34-.035c-3.172-.049-3.887.283-3.675 1.706.06.398.03.929-.066 1.181l-.175.459h-2.754c-1.515 0-2.754.067-2.754.148 0 .082-.188.196-.417.253-.391.099-.417.172-.417 1.185 0 .609-.072 1.08-.166 1.08-.092 0-.167.15-.167.334 0 .299-.111.333-1.083.333-.611 0-1.084.073-1.084.167 0 .091-.118.166-.262.166-.514 0-.738.448-.738 1.475 0 1.503-.02 1.525-1.358 1.525-1.638 0-1.942.32-2.009 2.11l-.049 1.307-1.329.049c-1.805.067-1.921.187-1.921 1.977v1.391h-1.566c-1.923 0-1.802-.233-1.75 3.383.044 3.113-.18 3.845-1.017 3.322-.397-.247-1.108-.27-1.251-.039-.056.092-.271.167-.476.167-.206 0-.464.09-.574.2-.281.282-.275 4.683.007 5.136.402.643-.003.908-1.466.963-1.872.071-1.741-.316-1.741 5.138v4.73H11v-.5c0-.275.075-.5.167-.5.107 0 .166-1.834.166-5.167 0-3.333-.059-5.167-.166-5.167-.092 0-.167-.227-.167-.504 0-.61.416-.81 1.462-.701 1.097.114 1.871-.08 1.871-.469 0-.179.084-.326.185-.326.124 0 .146-.207.067-.625-.065-.343-.13-1.637-.144-2.875l-.024-2.25 1.477-.048c2.028-.067 1.939.093 1.939-3.503 0-3.25.114-3.686.845-3.23 1.245.777 2.393-.052 2.454-1.773l.048-1.362h1.21c1.418 0 2.107-.256 2.109-.782 0-.201.076-.412.168-.468.222-.138.214-.75-.01-.75-.103 0-.155-.264-.125-.625l.051-.625 1.246-.05c1.748-.07 2.649-1.025 2.183-2.313-.328-.908.058-1.221 1.507-1.221 1.159 0 1.814-.342 1.814-.948 0-.12.075-.218.167-.218.092 0 .167-.221.167-.49 0-.27-.075-.537-.167-.594-.663-.409.27-1.083 1.5-1.083 1.536 0 2.663-1.437 1.802-2.298-.152-.152-.108-.293.196-.616.39-.416.417-.419 3.21-.419 3.302 0 3.285.008 3.404-1.546.137-1.788.015-1.717 2.939-1.71 2.739.006 3.616-.18 3.616-.767 0-.173.093-.464.206-.646.165-.264.165-.399 0-.662-.441-.708.656-1.907 1.225-1.338m79.344 10.627c-.07.113 8.92.112 20.641-.003 2.475-.024-1.139-.062-8.031-.083-6.893-.022-12.567.017-12.61.086m28.141-.007c4.616.118 8.584.121 8.584.007 0-.069-2.344-.109-5.209-.089-2.864.019-4.383.056-3.375.082m-32 3.549-3.666.093 3.615.037c2.271.023 3.653-.026 3.718-.13.057-.092.08-.15.052-.13-.029.02-1.702.078-3.719.13m45.653.125c3.512.031 5.224.106 5.379.234.178.148.204.13.121-.086-.095-.247-.62-.27-5.379-.234l-5.274.039 5.153.047M61 22.029c0 3.548.245 3.303-3.317 3.31-3.434.007-3.516.048-3.516 1.741 0 1.612.052 1.587-3.322 1.587-1.785 0-2.845.062-2.845.166 0 .092-.113.167-.25.167-.201 0-.25.256-.25 1.307 0 1.558-.155 1.693-1.947 1.693-1.556 0-2.301 1.301-1.385 2.417.328.399-.29.777-1.28.783-.534.003-1.046.061-1.138.13-.092.068-.373.173-.625.234-.301.071-.458.218-.458.425 0 .174-.094.351-.209.393-.166.061-.166.12 0 .297.115.122.209.581.209 1.021v.8h-1.25c-.723 0-1.25.07-1.25.167 0 .091-.188.166-.417.166h-.417V41.8c0 3.487.059 3.367-1.645 3.367-1.89 0-1.855-.068-1.855 3.525v2.975h-2.922c-3.129 0-3.418-.084-2.937-.853.247-.397.271-7.079.026-7.231-.297-.183-.183-.777.167-.868.183-.048.333-.153.333-.234 0-.081.528-.148 1.174-.148 1.857 0 1.993-.209 1.993-3.066 0-1.318-.069-2.29-.167-2.35-.092-.057-.167-.324-.167-.594v-.49h1.217c1.248 0 2.113-.255 2.115-.625.001-.114.077-.208.168-.208.092 0 .167-.338.167-.75 0-.413-.075-.75-.167-.75-.247 0-.201-.489.072-.762.162-.163.621-.238 1.447-.238 1.56 0 1.981-.323 1.981-1.519 0-.437-.08-.844-.179-.905-.538-.333.566-.909 1.75-.915 1.576-.007 1.856-.331 1.705-1.972-.12-1.302.771-2.075 1.524-1.322.156.155.2.155.2 0 0-.117.24-.2.577-.2.935 0 1.782-1.49 1.09-1.917-.24-.149-.205-.569.071-.845.187-.187.818-.238 2.917-.238 1.675 0 2.679-.063 2.679-.167 0-.092.142-.167.315-.167.405 0 .518-.312.518-1.432 0-1.648-.255-1.568 4.957-1.568H61v2.696m56.833-2.198-1.416.107 2.031.031c1.118.017 2.067-.025 2.109-.094.1-.161-.938-.178-2.724-.044m-8.133.702c-.128.129-.198.77-.195 1.792.004 1.199.049 1.517.181 1.289.097-.166.157-.654.134-1.083a17.62 17.62 0 0 1-.014-1.402l.027-.621 2.709-.05 2.708-.05-2.675-.037c-1.902-.027-2.733.02-2.875.162m29.536.12c-.038.038-.069.835-.069 1.771 0 2.25.515 2.063-5.848 2.115l-5.402.044-.097 1.5c-.181 2.785.377 2.522-5.681 2.678-5.375.137-4.8-.176-4.803 2.614l-.003 1.792-1.208.002c-3.735.007-6.549.184-6.792.427-.194.194-.25.693-.25 2.235 0 2.506.118 2.394-2.483 2.352-2.852-.046-2.807-.094-2.747 2.899.058 2.903.232 2.731-2.828 2.789l-2.442.046v1.719c0 1.463-.043 1.743-.291 1.883-.161.09-.292.348-.292.573v.408h-2.24c-2.679 0-2.486-.186-2.593 2.5l-.084 2.083-2.541.046-2.542.046v3.07c0 2.729-.032 3.094-.292 3.287-.258.193-.291.548-.291 3.079 0 1.574-.038 2.9-.085 2.946-.047.047-1.172.109-2.5.139l-2.415.054-.047 2.288-.046 2.287 2.796.046 2.797.046.046 2.375.046 2.375 11.121.028c6.116.015 14.542.005 18.725-.023l7.605-.05.191.58c.105.318.156.931.114 1.362-.042.431-.13 2.392-.195 4.359L125.451 85h5.716v.885c0 1.393.072 1.435 2.583 1.487l2.167.045v2.166l-23.667.045c-25.217.048-24.351.067-24.58-.536-.109-.287-.243-.375-.478-.314-.229.06-.36-.018-.437-.262-.061-.192-.289-.393-.507-.448-.235-.059-.418-.245-.451-.459-.03-.197-.155-.338-.277-.312-.568.122-.853-.148-.853-.808 0-.545-.057-.656-.334-.656-.219 0-.333-.111-.333-.323 0-.455-.114-.493-1.598-.525-1.627-.036-1.563.07-1.566-2.6-.003-2.639.264-2.425-2.971-2.38l-5.115.07c-1.375.019-2.57-.002-2.655-.048-.085-.046-1.416-.065-2.958-.043l-2.804.041V75.838l4.875-.048 4.875-.047-4.916.003-4.917.004v4.333l2.917.017 2.916.016.047 2.275.046 2.276h2.834c2.737 0 2.839.012 2.965.354.124.334.234.352 1.97.324l1.839-.029.303.464c.167.254.35.687.406.96.071.349.224.526.513.594.275.065.429.231.466.506.031.226.125.481.209.568.084.087.152.371.152.629 0 .667.474.796 2.907.796 2.588 0 2.459-.148 2.394 2.737-.043 1.921-.013 2.265.199 2.271.138.004 2.627.001 5.531-.007l5.28-.015.107.715c.058.394.082 1.541.053 2.549l-.054 1.834 21.121.042 21.12.042.046-2.542.046-2.542 2.766-.046 2.766-.045.107-2.356c.059-1.295.127-2.372.151-2.393.024-.02 1.281-.065 2.794-.099l2.75-.061.046 2.548c.025 1.402.1 2.516.166 2.475.165-.102 9.978-.27 18.288-.314l6.833-.036-5.575-.047c-3.212-.028-5.616-.113-5.671-.203-.053-.086-.079-.947-.058-1.914l.037-1.759h-2.408c-1.803 0-2.414-.053-2.432-.209a42.509 42.509 0 0 1-.041-1.625l-.019-1.416-1.94-.047-1.941-.047-.112-.598c-.062-.328-.093-1.02-.069-1.536l.044-.939-1.767-.047c-1.138-.031-1.827-.12-1.936-.251-.168-.203-.341-19.862-.176-20.027.043-.043.899-.089 1.904-.102l1.827-.025-.051-2.031c-.028-1.126.026-2.232.121-2.482l.171-.452h3.999l.046-2.208.047-2.208 1.993-.048c2.438-.057 2.59-.148 2.59-1.541 0-.524.047-1.188.105-1.476l.105-.523 5.687.044 5.687.044.048 1.491c.065 1.983-.011 1.925 2.55 1.925 2.588 0 2.485-.103 2.485 2.489 0 1.734.02 1.845.333 1.845.184 0 .334-.075.334-.167 0-.092.187-.167.416-.167.23 0 .417.075.417.167 0 .095.5.167 1.167.167h1.166v2.565c0 2.68.069 2.923.75 2.662.138-.053.25-.008.25.101 0 .218 2.279.163 2.959-.071l.375-.13v10.169c0 9.118-.028 10.178-.264 10.269-.145.056-1.195.101-2.333.101H186v1.407c0 1.707.065 1.654-2.167 1.76l-1.75.083.06 1.537.06 1.537-2.226.046-2.227.047-.048 1.74c-.026.958-.13 1.84-.23 1.961-.141.169-.111.213.131.191.173-.015 1.79-.016 3.595-.002l3.282.027.052.625.051.625h2.783c3.302 0 3.109-.127 3.169 2.085l.048 1.748 2.227-.055c3.112-.077 3.023-.116 3.023 1.308 0 .665.072 1.164.167 1.164.092 0 .167.225.167.5v.5l2.416.025c1.329.013 2.511.032 2.625.041.152.012.222-.45.256-1.691l.048-1.709h5.646l.046-2.458.046-2.458 2.48-.084 2.481-.083.019-2.333.02-2.334 2.667-.083 2.666-.083V58.75l-2.31-.046c-1.271-.026-2.396.017-2.5.095-.104.079-.865.091-1.69.028s-1.889-.078-2.364-.032l-.864.083-.095-1.897c-.053-1.044-.137-5.008-.188-8.81-.06-4.494-.154-6.986-.269-7.125-.135-.162-1.17-.213-4.365-.215l-4.188-.002-1.458-1.41-1.459-1.411-.035-2.879-.036-2.879-.089 2.866-.09 2.866-5.958.059-5.958.059v-4.976l-3.829.122-3.828.122-.047-2.226-.046-2.225-5.037-.044-5.037-.045-.046-2.122-.047-2.123-9.741-.043c-7.539-.033-9.771-.09-9.872-.25-.073-.114-.133-.975-.134-1.915-.002-.94-.059-1.711-.128-1.714-1.249-.052-6.589-.059-6.639-.008m43.941 1.199c-.006.422.037 1.116.096 1.541l.106.774h3.788v-1.282c0-1.111-.03-1.241-.223-.977-.188.256-.366.287-1.125.197-2.184-.259-2.34-.301-2.487-.665-.113-.279-.147-.19-.155.412m-74.51 2.981-.75.117.698.025c.384.014.745-.05.802-.142.056-.091.079-.155.051-.141-.028.013-.389.077-.801.141m78.5.063c0 .237.255.266 2.041.235l2.042-.035-1.823-.054c-1.003-.03-1.922-.135-2.042-.235-.165-.137-.218-.115-.218.089m-81.375.058c.298.037.785.037 1.083 0 .298-.037.054-.067-.542-.067-.596 0-.839.03-.541.067M104 27.25v2.25h-2.55c-3.16 0-2.95-.191-2.95 2.695v2.294l-1.958.053-1.959.053 2.038.036 2.037.036.046-2.459.046-2.458 2.7-.046 2.699-.046.051-2.329c.027-1.281-.006-2.329-.075-2.329-.069 0-.125 1.012-.125 2.25m88.417-2.097c.304.118.34.326.416 2.35.067 1.778.133 2.235.334 2.296.201.061.209.033.041-.145-.144-.153-.208-.873-.208-2.336 0-2.177-.053-2.347-.722-2.306-.107.006-.045.07.139.141m9.505.222c-.037.115-.094 1.202-.126 2.417L201.738 30l.756-.029.756-.029-.674-.062-.674-.062.053-1.618c.029-.889.071-1.935.092-2.325.039-.717-.002-.88-.125-.5m5.168 4.25c-.044.115-.007.208.082.208.096 0 .161.876.161 2.153 0 2.823-.075 2.688 1.476 2.648l1.274-.034-1.19-.057c-1.434-.069-1.387.022-1.391-2.73l-.002-1.938.521-.104c1.48-.296 4.954-.118 5.009.258.029.199.142.391.25.426.138.046.16-.073.072-.403l-.125-.469-3.029-.083c-2.331-.064-3.047-.035-3.108.125m8.577.864 2.083.094.095 1.75.096 1.75-.012-1.833-.012-1.833-2.167-.011-2.167-.01 2.084.093m-3.483 4.131.6.064.119 3.108c.065 1.709.157 3.171.205 3.248.048.078 1.214.131 2.59.118 3.031-.029 2.783-.277 2.839 2.846l.046 2.579 2.209.047 2.208.046v12.491h2.75c2.505 0 2.751.026 2.759.291.004.161.001 1.284-.008 2.496l-.017 2.204 2.55.046 2.549.046.084.583.083.584 2.465.046c2.906.054 2.648-.202 2.679 2.664l.023 2.123 4.875.044 4.875.044V64.5h-2.324c-1.278 0-2.362-.063-2.41-.139-.047-.077-.134-2.308-.193-4.959-.059-2.65-.156-4.871-.216-4.936-.059-.064-.069 1.511-.022 3.5.046 1.99.061 3.674.031 3.742-.029.069-1.051.125-2.272.125h-2.219l-.104-.52c-.058-.287-.106-1.093-.107-1.792-.004-2.155.188-2.005-2.641-2.058l-2.44-.046-.047-2.125-.046-2.125-2.204-.003c-2.859-.003-2.696.145-2.564-2.328.153-2.845.292-2.703-2.61-2.667a98.901 98.901 0 0 1-2.529.013c-.104-.01-.179-1.273-.199-3.35-.018-1.834-.079-3.409-.135-3.5-.06-.097-1.094-.165-2.503-.165h-2.4l-.048-1.459-.048-1.458-2.625-.046-2.625-.046v-1.629c0-1.835-.103-2.043-.992-2.001l-.592.028.601.064m8.448.17c.576.033 1.476.033 2 0 .523-.033.051-.06-1.049-.06-1.1.001-1.528.028-.951.06M93.296 37.125l-.046 2.292-2.286.028c-2.864.036-2.631-.191-2.631 2.551 0 1.411-.066 2.343-.171 2.394-.093.047-.075.066.042.042.158-.032.225-.653.259-2.404l.046-2.361H93.5V37.25c0-3.067-.142-3.154-.204-.125m-32.228-.975c.188.207.226.355.11.427-.25.154-.239 4.295.011 4.546.543.542-.229.71-3.259.71-3.501 0-3.763.107-3.763 1.53 0 .442.075.804.166.804.232 0 .209.557-.033.8-.124.123-.732.2-1.595.2-.987 0-1.465.069-1.634.238-.306.306-.349 5.25-.048 5.551.551.551-.235.721-3.122.673-3.034-.05-3.429-.179-2.941-.959.26-.417.297-7.094.04-7.253-.799-.494.124-1.083 1.696-1.085 1.343-.001 1.394-.016 1.596-.45.256-.552.27-1.42.027-1.663-.45-.45-.102-.967.681-1.01 2.596-.14 3.153-.51 2.691-1.787-.212-.587-.251-1.306-.08-1.478.309-.309 9.166-.116 9.457.206m162.461 2.1c-.011.687.037 1.064.117.917.075-.138.084-.663.019-1.167l-.118-.917-.018 1.167m2.554 1.243 2.334.09.046 2.33c.026 1.282.101 2.384.167 2.451.066.066.097-.98.069-2.326-.06-2.924.158-2.708-2.699-2.668l-2.25.032 2.333.091M207.167 47v6h-5.49c-4.21 0-5.522-.049-5.625-.208-.154-.238-.302-11.167-.157-11.545.081-.211.898-.247 5.683-.247h5.589v6m26.133-.167c.029 1.323.119 2.334.209 2.334.176 0 .214-3.054.051-4.042-.207-1.249-.309-.575-.26 1.708m1.332 2.624c.576.033 1.476.032 2-.001.523-.033.051-.059-1.049-.059-1.1 0-1.528.027-.951.06m3.944 2.584.007 2.209 1.25.013 1.25.012-1.203-.061-1.204-.062-.054-2.159-.054-2.16.008 2.208M113.417 59.75v5.333l-4.371.045-4.37.044-.046 2.372-.047 2.373-5.822.044c-3.203.024-5.88-.014-5.949-.084-.069-.07-.14-1.439-.158-3.044l-.032-2.916 2.79-.046 2.791-.046-.06-2.371-.06-2.371 2.292-.046 2.292-.046v-2.218c0-1.22.051-2.268.113-2.331.062-.062 2.481-.093 5.375-.069l5.262.044v5.333m54.988-.697c-.046.121-.06 1.002-.03 1.958l.055 1.739.035-1.868.035-1.868 1.292-.057 1.291-.057-1.297-.033c-.944-.025-1.319.026-1.381.186m4.562-.095c.945.03 2.445.029 3.334-.001.888-.029.116-.054-1.718-.054-1.833.001-2.56.025-1.616.055M76.401 64.75c0 1.467.026 2.044.056 1.284.031-.761.031-1.961 0-2.667-.031-.706-.056-.084-.056 1.383m88.954-.433c-.126.079-.195.247-.153.372.052.158.136.113.276-.148.222-.414.21-.435-.123-.224m119.978 4.179v2.996l3.042.046 3.042.045.042 12.292.043 12.292h-6.161l-.046 3.041-.045 3.042h-24.5l-.042-18.375-.043-18.375h24.668v2.996m40 0v2.996l3.042.046 3.042.045v24.5l-3.038.046-3.038.045-.046 3.038-.045 3.038h-24.5l-.045-3.038-.046-3.038-3.038-.045-3.038-.046v-24.5l3.042-.045 3.042-.046V65.5h24.666v2.996M356 80.833v15.334h-6.167v6.172l-4.541-.045-4.542-.044-.045-3.042-.046-3.041H334.5V90h6.167v6.167h9.166V65.5H356v15.333m33.833-12.337v2.996l3.042.046 3.042.045.042 12.292.043 12.292H389.833v6.166h-24.5v-6.166h-6.168l.042-12.292.043-12.292 3.042-.045 3.041-.046V65.5h24.5v2.996M158.59 66.749c-.272.221-.44.456-.375.521.065.066.118.031.118-.076s.11-.194.244-.194c.135 0 .325-.15.423-.333.224-.419.195-.413-.41.082m15.277 1.446c-.018.703-.082 1.415-.142 1.583-.081.23-.058.26.091.123.133-.122.18-.647.142-1.583l-.057-1.401-.034 1.278M160.333 69.5l-1.583.103 1.532.032c.878.018 1.576-.04 1.635-.135.056-.092.079-.152.051-.135-.028.018-.764.078-1.635.135m12.417 1.456c-.646.095-.921.331-.9.773.015.313.03.305.132-.062.084-.305.247-.432.608-.471.271-.03.565-.124.652-.209.087-.084.124-.142.083-.129-.041.014-.3.058-.575.098m94.124 12.919.043 12.208 9.208.043 9.208.043V71.667h-18.502l.043 12.208m33.793.042v12.25h24.666v-24.5h-24.666v12.25m64.666 0v12.25h24.5v-24.5h-24.5v12.25M170.941 72.281c-.062.063-.431.166-.819.229-.69.113-.693.115-.122.133.321.01.883-.089 1.25-.222.558-.201.597-.241.236-.247-.237-.004-.482.044-.545.107m-90.066 3.505 1.125.063v1.638c0 1.283.057 1.686.261 1.855.292.243 5.571.346 5.572.109 0-.073-1.218-.121-2.708-.109l-2.708.024-.084-1.808-.083-1.808-1.25-.013-1.25-.013 1.125.062m6.958 5.078c0 .312 21.86.42 28.5.141 1.673-.071-3.373-.144-12.875-.186-8.593-.038-15.625-.018-15.625.045m-17.631 4.844c.214.168.279.662.334 2.549.087 2.979-.142 2.743 2.657 2.743h2.341l-.106.792c-.203 1.51-.111 3.273.18 3.492.202.151 1.567.176 5.571.102l5.304-.098.064 1.064.064 1.065-.014-1.167-.014-1.167-5.333-.044c-6.52-.053-5.798.23-5.726-2.249l.059-2.04-2.375-.046c-1.306-.026-2.376-.063-2.377-.084l-.107-2.453c-.063-1.472-.177-2.465-.289-2.539-.315-.209-.514-.14-.233.08m-6.091.07a.457.457 0 0 0-.108.291c.001.118.045.113.126-.014.068-.107.386-.226.706-.265l.582-.07-.598-.027c-.328-.014-.647.024-.708.085m113.842 7.847c-.038.252-.07.046-.07-.458 0-.505.032-.711.07-.459.038.252.038.665 0 .917M65 95.279c2.232.121 4.463.127 4.391.013-.042-.069-1.254-.111-2.693-.094-1.438.018-2.202.054-1.698.081m21.548 3.471c.001.458.033.626.072.373a2.975 2.975 0 0 0-.003-.834c-.039-.205-.071.003-.069.461m62.761-.459c-2.237.043-2.639.092-2.826.338-.184.244-.182.256.017.079.165-.147.977-.208 2.773-.208 1.514 0 2.582-.067 2.644-.167.056-.091.079-.15.051-.129-.028.02-1.225.06-2.659.087m-79.806 3.23c-.004 2.484-.228 2.332 3.352 2.27l2.895-.049-2.958-.038-2.959-.037-.002-1.792c-.002-.985-.075-1.904-.164-2.042-.11-.169-.163.375-.164 1.688m74.087-1.063c-3.072.059-2.929-.026-2.89 1.709l.028 1.25.094-1.334.095-1.333 2.579-.046c1.419-.026 2.653-.119 2.742-.209.089-.089.128-.145.087-.125-.041.021-1.272.06-2.735.088m-50.715.625c.002.367.036.497.076.29.04-.207.039-.507-.003-.667-.042-.159-.074.011-.073.377m102.85 3.75c0 .779.029 1.098.064.709a9.575 9.575 0 0 0 0-1.417c-.035-.39-.064-.071-.064.708m-100.642-.215c4.159.117 8.046.121 7.975.007-.043-.069-2.229-.109-4.86-.09-2.63.019-4.031.057-3.115.083m39.848.156c-.083.214-.057.233.119.087.136-.113 1.224-.205 2.795-.236l2.572-.051-2.691-.037c-2.362-.032-2.703-.004-2.795.237m-31.759 2.164c-.011.409.483.578 1.522.519l1.056-.059-1.117-.033c-.865-.024-1.155-.097-1.286-.323-.094-.161-.172-.207-.175-.104m103.842 2.312a684.761 684.761 0 0 1-.078 2.333c-.018.463-.075.508-.769.6l-.75.1.797.025c.997.032.975.096.911-2.65l-.052-2.241-.059 1.833m15.356.592.047 2.408 2.7.083c3.233.1 3.028-.067 3.086 2.503l.047 2.081 2.167.04c3.204.061 2.899-.198 2.953 2.503l.047 2.29 2.583.083 2.583.084.045 4.497c.047 4.787.014 5.196-.379 4.636-.303-.434-.916-.616-.916-.273 0 .172.103.213.345.136.262-.083.368-.025.436.239.146.555.674.434.81-.185.238-1.082.017-8.864-.257-9.087-.171-.138-1.031-.204-2.709-.208l-2.458-.005v-2.178c0-2.984.151-2.822-2.647-2.822h-2.302l-.101-2c-.137-2.726.115-2.518-3.097-2.554l-2.704-.03-.081-2.242c-.045-1.234-.118-2.28-.163-2.325-.045-.044-.06 1.002-.035 2.326m-145.537.271c2.205.12 4.796.127 4.725.012-.043-.069-1.329-.111-2.86-.093-1.53.017-2.369.054-1.865.081m119.239 2.606c-.046.121-.062 1.039-.035 2.042l.048 1.822.083-2.042c.081-2.017.069-2.251-.096-1.822m.636-.104c.161.042.423.042.584 0 .16-.042.029-.076-.292-.076s-.452.034-.292.076m-110.416.509c.664.031 1.752.031 2.416 0 .665-.032.121-.058-1.208-.058s-1.873.026-1.208.058m4.958.032 1.333.094.092 1.833.092 1.834.033-1.695c.045-2.312.103-2.228-1.526-2.191l-1.357.03 1.333.095m-8.789.131c.3.038.75.037 1-.001.251-.038.006-.069-.544-.068-.55.001-.755.032-.456.069m102.763 2.13c0 .733.03 1.012.065.62a8.344 8.344 0 0 0-.001-1.333c-.036-.341-.065-.021-.064.713M196 116.855c0 .08 1.031.155 2.292.168 1.26.012 3.791.068 5.625.125l3.333.102.083 2.333.084 2.334 5.822.044c6.575.049 6.088.161 6.092-1.396l.002-1.019.875-.105c1.929-.231 2.605-.089 2.832.598.046.139.551.24 1.474.294l1.403.084.083.75c.083.744.088.75.75.776l.667.026-.584-.11c-.519-.097-.589-.173-.638-.692-.085-.888-.264-1-1.595-1-1.128 0-1.217-.029-1.651-.523l-.459-.523-1.475.084c-1.83.104-1.848.117-1.848 1.208 0 1.549.535 1.42-5.935 1.42H207.5v-2.216c0-2.817.251-2.617-3.283-2.617-1.914 0-2.884-.059-2.884-.176 0-.118-.885-.166-2.666-.145-1.467.018-2.667.097-2.667.176m-103.224.353c.042.069 2.185.125 4.762.125 2.576 0 4.644-.04 4.594-.09-.141-.141-9.443-.175-9.356-.035m89.516.082a15.48 15.48 0 0 0 1.75 0c.481-.034.087-.062-.875-.062-.963 0-1.357.028-.875.062m-78.934 2.325c.02 1.795.044 1.976.148 1.135.186-1.494.183-3.05-.006-3.167-.108-.067-.158.645-.142 2.032m-25.733 1.843a95.82 95.82 0 0 0 4.083 0c1.123-.029.204-.053-2.041-.053-2.246 0-3.165.024-2.042.053m-2.376.25c-.126.355-.173 4.784-.05 4.659.108-.109.275-4.868.171-4.867-.026 0-.08.094-.121.208m17.543-.042c.144.162.208.907.208 2.419 0 2.903.178 2.732-2.917 2.787l-2.5.045-.119 2.142c-.156 2.809.168 2.592-3.94 2.65l-3.441.048 3.631.038c2.785.029 3.645-.01 3.695-.17.036-.115.11-.48.165-.812l.1-.604 1.205-.11c.662-.06 1.517-.152 1.899-.204l.695-.096.106-.858c.2-1.63.254-1.768.726-1.881.837-.2.862-.279.862-2.81 0-2.068-.038-2.404-.292-2.597-.248-.187-.261-.185-.083.013m97.768.205c-.138.224-.1 7.698.042 8.171.126.42 4.803.446 4.964.028.145-.379.12-3.52-.027-3.32-.154.21-3.959.272-4.483.073-.383-.146-.389-.185-.389-2.573v-2.426l2.458.047 2.458.046.091 2.333.09 2.333.035-2.194c.019-1.207-.011-2.314-.067-2.459-.132-.344-4.962-.399-5.172-.059m42.273 2.337c.084 2.23.171 2.625.576 2.625.122 0 .262.106.312.235.049.128.32.284.601.346.284.063.511.22.511.354 0 .134.113.286.25.338.138.053.25.232.25.398 0 .504.188.829.478.829.152 0 .369.15.484.334.114.183.286.333.381.333.302 0-.41-.807-.801-.909-.235-.061-.375-.225-.375-.439 0-.47-.805-1.485-1.178-1.485-.168 0-.365-.102-.439-.226-.073-.124-.302-.314-.508-.423-.359-.188-.375-.286-.375-2.357 0-1.189-.056-2.161-.125-2.161-.069-.001-.088.993-.042 2.208m-122.625 2.249a26.38 26.38 0 0 0 2.25 0c.619-.032.113-.058-1.125-.058-1.237 0-1.743.026-1.125.058m-40.076.167c.576.032 1.476.032 2-.001.523-.033.051-.06-1.049-.059-1.1 0-1.528.027-.951.06m-1.135 2.459-.08 2.334-2.572.046c-3.256.058-3.046-.134-2.992 2.73.052 2.764.354 2.461-2.484 2.494-1.297.015-2.32.091-2.271.17.171.278 4.503.173 4.742-.115.15-.181.218-.961.229-2.625l.014-2.367 2.608-.046c3.206-.056 3 .136 2.936-2.727l-.049-2.227-.081 2.333m47.075 2.542c1.5.033 2.415.123 2.583.255.231.179.234.169.033-.088s-.512-.288-2.583-.255l-2.355.036 2.322.052m53.795-.001c.797.03 2.147.031 3 0 .852-.03.2-.055-1.45-.055s-2.348.024-1.55.055m-97.2.376c-.244.244-.334.556-.334 1.162 0 .741-.05.855-.469 1.072-.457.237-.796.955-.903 1.915-.037.331-.196.437-.949.629-1.188.303-1.288.405-1.42 1.46-.077.618-.199.927-.394.998-.739.27-1.062.55-.766.664.179.068.402-.017.6-.229.173-.186.378-.338.456-.338.077 0 .19-.243.249-.541.287-1.435.278-1.419.993-1.692.384-.147.821-.267.973-.267.289 0 .317-.064.633-1.459.159-.705.276-.896.599-.977.415-.104.485-.278.624-1.535.047-.431.202-.815.385-.953.168-.127.25-.234.181-.237-.069-.003-.275.145-.458.328m.771-.201c-.045.072.195.105.532.073 1.031-.097 1.152-.166.332-.186-.431-.011-.819.04-.864.113m94.646.076c-.124.36-.173 5.115-.051 4.992.108-.108.274-5.201.17-5.201-.026.001-.079.094-.119.209m-63.667 4.915c.856.125.916.27.916 2.199 0 2.462.088 2.382-2.724 2.477-2.862.097-2.86.096-2.655 1.686.152 1.18.146 1.219-.232 1.391-1.021.465-.448.634 1.986.587l2.375-.047.084-1.75c.081-1.715.091-1.751.5-1.803.724-.093.833-.436.833-2.627 0-2.234-.013-2.261-1.055-2.211l-.528.025.5.073m60.973.469c-.055.143-.026.424.065.625.149.332.171.308.238-.259.073-.625-.116-.854-.303-.366m-17.932.025c.207.04.544.04.75 0 .207-.039.038-.072-.375-.072-.412 0-.581.033-.375.072m1.509 2.496c.038 1.8-.005 2.482-.167 2.677-.194.235-1.521.254-12.967.187-7.012-.04-11.662-.024-10.333.037 5.585.256 23.457.171 23.566-.111.146-.382.124-5.036-.024-5.128-.069-.043-.103 1.009-.075 2.338m-82.851.16c-.059.058-.615.189-1.236.291l-1.13.186-.106 2.265c-.058 1.247-.16 2.512-.226 2.813-.074.337-.059.509.04.448.088-.055.212-.793.276-1.642.065-.848.176-1.582.249-1.63.116-.077.346-1.036.39-1.627.011-.142.078-.154.219-.037.141.118.23.095.296-.075.051-.134.004-.274-.106-.311-.109-.037.06-.074.377-.084.603-.017 1.341-.329 1.341-.565 0-.164-.233-.184-.384-.032m105.764 1.527c-.138.088-.218.818-.25 2.29l-.047 2.16-5.346.035c-3.123.02-5.532.105-5.792.204l-.445.169v8.175h25.083l.041-3.908c.022-2.149-.015-3.942-.083-3.984-.069-.042-.101.778-.073 1.824l.052 1.901H177.509l-.046-2.375-.046-2.375-.834-.055c-.458-.031-1.645.032-2.637.14-2.173.237-1.951.457-1.994-1.98l-.035-2.022h8l-.051 2.417c-.033 1.611.009 2.417.125 2.417.26 0 .237-4.706-.024-4.967-.229-.228-7.735-.289-8.087-.066m-69.047 2.269c0 .039.046.189.101.334.087.226-.076.263-1.138.263-1.366 0-1.67-.123-1.093-.443.345-.192 2.13-.32 2.13-.154m-44.299 2.556c.124.148.84.208 2.486.208 3.152 0 3.009-.303-.173-.367-1.974-.039-2.45-.007-2.313.159" fill="#fb8304"/><path d="M44.048 6.123c.53.034 1.355.033 1.833 0 .478-.034.044-.061-.964-.061-1.009.001-1.4.028-.869.061m-2.384 1.161c-.044.569-.02.973.054.899.074-.075.11-.54.081-1.034l-.054-.899-.081 1.034m5.468 4.506c.576.033 1.476.033 2 0 .523-.033.051-.06-1.049-.06-1.1.001-1.528.028-.951.06m74.743.331c.344.036.906.036 1.25 0s.063-.065-.625-.065c-.687 0-.969.029-.625.065m50.169-.001c.253.038.628.037.833-.003.205-.039-.002-.071-.46-.069-.459.001-.626.033-.373.072m11.508 1.13c.001.55.032.755.069.455a4.447 4.447 0 0 0-.002-1c-.038-.25-.068-.005-.067.545m5.992 2.203c.253.038.628.037.833-.002.205-.04-.002-.071-.46-.07-.459.001-.626.034-.373.072m-82.316 1.797c0 .917.028 1.27.062.786s.033-1.234-.001-1.667c-.034-.432-.062-.036-.061.881m88.149 2.203c.254.038.629.037.834-.002.205-.04-.003-.071-.461-.07-.458.001-.626.034-.373.072m-90.919.165c.207.039.544.039.75 0 .207-.04.038-.073-.375-.073-.412 0-.581.033-.375.073m12.667.171c.39.035 1.027.035 1.417 0 .389-.035.07-.064-.709-.064-.779 0-1.098.029-.708.064m-65.627 1.162c-.045.66-.021 1.14.052 1.066.074-.074.11-.614.082-1.201l-.052-1.066-.082 1.201m133.428.866c-.301.118-.295.135.083.236.558.149 1.787.142 1.882-.011.042-.069-.253-.099-.657-.067-.458.037-.734-.01-.734-.125 0-.208-.111-.214-.574-.033m28.457 1.516c0 .504.032.711.07.459a3.702 3.702 0 0 0 0-.917c-.038-.252-.07-.046-.07.458m-25.589 1.618c.207.04.507.039.666-.003.16-.042-.01-.074-.377-.073-.366.002-.497.036-.289.076M41.717 27.667c0 .504.031.71.069.458a3.702 3.702 0 0 0 0-.917c-.038-.252-.069-.046-.069.459m51.658-.25c.002.366.036.497.076.289.04-.207.039-.507-.003-.666-.042-.16-.074.01-.073.377m-69.724 7.518a1.666 1.666 0 0 1-.562.406c-.239.097-.261.141-.076.148.144.006.438-.176.654-.406.215-.229.35-.416.299-.416-.05 0-.192.121-.315.268m-9.263.982c.001.641.031.883.067.538a6.308 6.308 0 0 0-.001-1.167c-.037-.296-.067-.013-.066.629m214.821 0c.002.366.036.497.076.289a1.83 1.83 0 0 0-.004-.666c-.042-.16-.074.01-.072.377m-177.667.666c.002.367.036.497.076.29.04-.207.038-.507-.003-.667-.042-.159-.075.011-.073.377m178.671 1.54a10.87 10.87 0 0 0 1.5-.001c.387-.035.029-.063-.796-.063-.825.001-1.142.029-.704.064m-33.63.658c.65.654 1.773 1.559 1.334 1.074a7.092 7.092 0 0 0-1-.897c-.275-.19-.425-.27-.334-.177m-184.039.505c.253.039.628.038.833-.002.205-.04-.002-.071-.46-.07-.459.002-.626.034-.373.072m36.331.002c.344.036.906.036 1.25 0s.063-.065-.625-.065c-.687 0-.969.029-.625.065m24.088 11.668a8.34 8.34 0 0 0 1.333-.002c.341-.035.021-.064-.713-.064-.733.001-1.012.03-.62.066m134.585 1.127c.001.459.033.626.072.373a2.968 2.968 0 0 0-.003-.833c-.039-.205-.071.002-.069.46m15.339 2.25c0 .596.03.84.067.542a5.297 5.297 0 0 0 0-1.083c-.037-.298-.067-.055-.067.541m20.847 2.917c0 1.467.026 2.044.057 1.284.031-.761.031-1.961-.001-2.667-.031-.706-.056-.084-.056 1.383m-33.44 1.535c.207.039.507.038.666-.004.16-.042-.01-.074-.377-.072-.366.002-.497.036-.289.076m-52.246.172c.53.033 1.355.033 1.833-.001s.044-.061-.964-.06c-1.009 0-1.4.028-.869.061m95.352 4.126c0 1.375.026 1.916.057 1.201.032-.715.031-1.84 0-2.5-.032-.66-.057-.076-.057 1.299M153.048 65.25c.001.458.033.626.072.373a2.975 2.975 0 0 0-.003-.834c-.039-.205-.071.003-.069.461m-82.656 1.083c0 .779.028 1.098.063.709a9.575 9.575 0 0 0 0-1.417c-.035-.39-.063-.071-.063.708m36.483 8.957a26.38 26.38 0 0 0 2.25 0c.619-.032.112-.058-1.125-.058s-1.744.026-1.125.058m80.34 9c.623.033 1.598.032 2.167 0 .569-.033.06-.059-1.132-.059-1.192.001-1.657.027-1.035.059m59.41.001c1.215.029 3.202.029 4.417 0 1.214-.028.22-.052-2.209-.052-2.429 0-3.423.024-2.208.052m-89.57 1.292c0 .642.031.884.067.538a6.208 6.208 0 0 0-.002-1.166c-.037-.296-.066-.013-.065.628m-85.513-.792c.802.03 2.114.03 2.916 0 .802-.031.146-.056-1.458-.056-1.604 0-2.26.025-1.458.056m5.672.666c.531.033 1.356.033 1.834-.001s.044-.061-.965-.06c-1.008 0-1.399.028-.869.061m72.828 4.491c.16.042.423.042.583 0 .16-.042.029-.076-.292-.076s-.452.034-.291.076m-62.976 2.469c0 1.283.026 1.786.058 1.117.032-.668.031-1.718-.001-2.333-.032-.615-.058-.068-.057 1.216m125.163.166c0 1.009.028 1.4.061.869.033-.53.033-1.355-.001-1.833-.033-.478-.06-.044-.06.964m-1.934 2.371c.299.037.749.036 1-.002.25-.038.005-.068-.545-.067-.55.001-.755.032-.455.069M98.224 96.75c0 .733.03 1.013.065.621a8.357 8.357 0 0 0-.001-1.334c-.036-.341-.065-.02-.064.713m108.99 2.167c.002.458.034.626.072.372a2.933 2.933 0 0 0-.002-.833c-.04-.205-.071.002-.07.461m22.911.707a31.42 31.42 0 0 0 2.417 0c.664-.032.12-.058-1.209-.058-1.329 0-1.873.026-1.208.058m-137.083 1.459c.002.367.036.497.076.29.04-.207.038-.507-.003-.667-.042-.159-.075.011-.073.377m108.544 6.746c-.055.09-.09 1.14-.076 2.334l.025 2.17 1.857-.014c1.022-.008 2.233-.065 2.691-.125l.834-.111.05-2.208.051-2.208h-2.666c-1.554 0-2.708.068-2.766.162m20.983 2.046.08 2.208 2.704.03c3.211.036 2.96-.171 3.097 2.545l.1 1.992 2.392.05 2.392.05-.003-1.917c-.004-2.547.146-2.405-2.616-2.47-2.823-.066-2.715.029-2.715-2.381 0-2.524.257-2.315-2.856-2.315h-2.655l.08 2.208m-26.736 7.162c0 .067-1.143.142-2.541.167l-2.542.046-.047 2.16c-.056 2.591.132 2.417-2.62 2.423-1.191.003-2.279.076-2.416.163-.495.313-.449 11.056.058 13.763.224 1.197.369 2.377.322 2.623-.217 1.136.063 1.62.919 1.591.609-.02.663-.041.242-.094-.517-.064-.541-.1-.541-.785 0-.396-.044-.935-.096-1.199-.117-.582 1.235-1.08 1.632-.601.131.158.36.2.704.127.907-.19 4.093-.262 4.093-.093 0 .24.69.567.813.386.057-.084.453-.32.879-.524.531-.254.809-.503.881-.79.118-.473.095-6.598-.024-6.275-.136.369-4.835.29-4.947-.083-.164-.547-.174-8.037-.011-8.198.091-.09 2.446-.18 5.49-.209l5.332-.052.107.5c.059.275.117 4.625.129 9.667.027 11.356-.216 10.43 2.709 10.289 1.498-.072 1.615-.055 1.714.257a.69.69 0 0 0 .429.419c.227.06.355.288.432.768.109.677.443.914.624.441.207-.538 1.374-.924 2.792-.924 1.832 0 1.984.167 1.984 2.172 0 1.52.236 2.085.709 1.699.114-.094 1.239-.206 2.5-.249l2.291-.078.003 2.27c.003 2.398.03 2.522.622 2.834.341.179.375.318.375 1.525v1.327h9.462l.115-1.079c.064-.593.072-1.149.019-1.235-.359-.58.064-.686 2.735-.686 3.249 0 3.049.176 2.98-2.619l-.052-2.131.662-.053c.365-.029.734-.123.821-.208.087-.086.725-.151 1.417-.145 1.077.009 1.198.038.841.2l-.416.189.529.06c.538.061 1.618-.173 2.031-.439.299-.193.507-1.319.516-2.791l.007-1.188.521-.104a6.682 6.682 0 0 1 1.042-.107c.837-.003 1.217-.165 1.417-.603.245-.537.264-18.669.02-19.31l-.166-.438-2.259.035c-2.732.043-2.554.208-2.611-2.434l-.047-2.164-2.5-.083-2.5-.084.05 2.292.051 2.292 2.449.005c1.671.004 2.529.07 2.7.208.274.223.495 8.005.257 9.087-.136.619-.664.74-.81.185-.067-.259-.176-.321-.424-.243-.272.087-.343.021-.387-.36-.038-.338-.157-.48-.434-.52a.932.932 0 0 1-.582-.375c-.11-.176-.324-.321-.476-.321-.29 0-.478-.325-.478-.829 0-.166-.112-.345-.25-.398-.137-.052-.25-.204-.25-.338 0-.134-.227-.291-.511-.354-.281-.062-.552-.218-.601-.346-.05-.129-.19-.235-.312-.235-.404 0-.491-.393-.576-2.583l-.083-2.167-3.333-.083-3.334-.083-.083-.75-.083-.75-1.403-.084c-.923-.054-1.428-.155-1.474-.294-.227-.687-.903-.829-2.832-.598l-.875.105-.002 1.019c-.004 1.557.483 1.445-6.092 1.396l-5.822-.044-.084-2.334-.083-2.333-4.083-.115c-2.246-.063-4.815-.138-5.709-.166-.894-.029-1.625.002-1.625.068m-125.291.254c.893.03 2.356.03 3.25 0 .893-.03.162-.055-1.625-.055-1.788 0-2.519.025-1.625.055m173.835 4.329c.254.038.629.037.834-.003.205-.039-.003-.071-.461-.069-.458.001-.626.033-.373.072m-174.585.349-.459.053v4.503l2.875-.054 2.875-.054.047-2.193.046-2.193-.672-.114c-.619-.104-3.641-.071-4.712.052m23.375 2.261c0 2.553-.024 2.63-.862 2.83-.472.113-.526.251-.726 1.881l-.106.858-.695.096c-.382.052-1.237.144-1.899.204l-1.205.11-.1.604a8.954 8.954 0 0 1-.165.812c-.051.162-1.597.211-6.945.222-8.668.018-7.783-.096-7.905 1.014-.139 1.258-.209 1.432-.624 1.536-.323.081-.44.272-.599.977-.316 1.395-.344 1.459-.633 1.459-.737 0-1.671.536-1.77 1.017l-.201.978c-.056.272-.236.537-.401.59-.165.052-.341.2-.39.329-.064.167-.258.208-.668.141-.445-.072-.666-.012-.957.259-.341.318-.748.421-1.483.378-.153-.01-.173.019-.051.074.11.049.157.199.106.333-.066.17-.155.193-.296.075-.141-.117-.209-.105-.222.037-.071.775-.268 1.623-.377 1.623-.071 0-.181.656-.243 1.458-.062.802-.2 1.668-.306 1.924l-.194.466-2.361-.049-2.361-.049-.055 2.416a90.673 90.673 0 0 0-.003 4.042l.053 1.625h34.425l.109-2.777c.06-1.527.11-5.394.11-8.594 0-7.15-.292-6.462 2.738-6.462 2.834 0 2.595.244 2.595-2.647 0-2.635-.106-2.519 2.325-2.522 2.916-.004 2.693.199 2.638-2.394l-.046-2.187-2.382-.084c-2.87-.1-2.696.073-2.699-2.69-.003-2.516.251-2.31-2.85-2.31h-2.319v2.397m-26.572 2.561c-3.114.064-2.928-.099-2.928 2.567v2.15l2.625-.045 2.625-.046.083-2.376.083-2.338c0 .021-1.119.06-2.488.088m-11.553 4.666a26.38 26.38 0 0 0 2.25 0c.618-.032.112-.058-1.125-.058-1.238 0-1.744.026-1.125.058m49.547.601c-.64.468-.575 4.609.072 4.609.807 0 .839.084.839 2.236 0 2.191-.109 2.534-.833 2.627-.409.052-.419.088-.5 1.803l-.084 1.75-2.375.047-2.375.046v2.791c0 3.995.037 4.02 5.5 3.703 4.608-.268 5.315-.18 4.387.55-.368.289-.695.308-4.573.256-4.582-.061-4.817-.01-4.568.982.052.207.018.375-.076.375a.17.17 0 0 0-.17.169c0 .111 2.085.153 6.125.125l6.125-.044-.06-4.511c-.05-3.776-.015-4.699.217-5.666.216-.903.265-1.796.226-4.073l-.049-2.916-1.776-.047c-2.208-.059-2.12.051-2.178-2.714l-.046-2.239-1.753-.047c-1.307-.035-1.835.013-2.075.188m-50.858 2.025c.001 1.192.027 1.658.059 1.035.033-.622.032-1.597 0-2.167-.033-.569-.059-.059-.059 1.132m8.52-.458c-.158 1.64-.288 1.776-.448.47-.222-1.814-.445-1.762-.589.139l-.095 1.266h-.976c-1.213 0-1.292.294-.101.377l.875.061-.875.031c-1.749.062-.882.364 1.042.364h1.918l-.009-1.041c-.024-2.773-.526-3.902-.742-1.667m-12.537 4.458c.002.459.034.626.072.373a2.933 2.933 0 0 0-.002-.833c-.04-.205-.071.002-.07.46m121.851 5.667c0 1.192.027 1.657.059 1.035.032-.623.032-1.598-.001-2.167-.032-.569-.059-.06-.058 1.132m-36.94-1.125c2.59.026 6.827.026 9.417 0 2.589-.026.47-.047-4.709-.047-5.179 0-7.298.021-4.708.047m72.616 1.921c-.131.342.012.787.254.787.213 0 .22-.499.011-.828-.132-.21-.171-.205-.265.041m.788 2.232c.071.367.721.417.721.055 0-.137-.175-.275-.39-.305-.302-.043-.376.013-.331.25m2.179 2.845c-1.325.076-1.366.377-.051.377.544 0 1.04.082 1.102.181.166.269.475-.1.352-.42-.055-.143-.159-.247-.231-.229-.071.018-.599.059-1.172.091m-2.253.92a.57.57 0 0 0 .037.444c.099.16.149.153.219-.03a.566.566 0 0 0-.037-.444c-.098-.16-.148-.153-.219.03m-22.896 1.374c0 .825.028 1.183.063.796a10.87 10.87 0 0 0 .001-1.5c-.035-.438-.063-.121-.064.704m6.413-.271c.135.085.2.363.167.706-.069.698.106.738 2.359.547.872-.074 1.364-.163 1.093-.198a2.166 2.166 0 0 1-.897-.382c-.223-.175-.658-.319-.966-.319-.388 0-.561-.077-.561-.25 0-.183-.189-.249-.709-.247-.45.001-.627.053-.486.143m50.254.479c-1.044.07-1.398.599-.518.775 1.336.267 2.125.132 2.125-.364 0-.509-.031-.517-1.607-.411m-3.226.196c0 .422.723.826.917.512.056-.091-.052-.166-.24-.166-.194 0-.344-.109-.344-.25 0-.138-.075-.25-.166-.25-.092 0-.167.069-.167.154" fill="#e92e05"/><path d="M48.598 2.846c-.237.282-.431.6-.431.705 0 .106.19-.087.422-.429.432-.635.644-.752.828-.455.065.105 2.168.166 5.76.166h5.656v2.48c0 3.158.429 2.883-4.386 2.821-2.154-.028-3.881.006-3.838.074.042.069 1.86.125 4.039.125 4.797 0 4.383.304 4.316-3.166l-.047-2.417-5.661-.044c-3.438-.027-5.725-.108-5.825-.208-.253-.253-.367-.205-.833.348m-.073 1.186c-.014.247-.1.495-.192.551-.091.057-.166.278-.166.492 0 .214-.124.437-.274.494-.151.058-.228.152-.171.209.184.183.611-.307.611-.701 0-.21.082-.41.182-.443.099-.033.148-.283.108-.556-.071-.483-.074-.484-.098-.046m79.308 5.801V12l-1.375.023-7.458.125-6.083.102-.048 1.542-.048 1.541h-2.48c-3.23 0-3.015-.124-2.973 1.726l.034 1.524.055-1.458.056-1.458h2.543c3.055 0 2.944.07 2.944-1.867v-1.467h7.3c5.456 0 7.351-.05 7.5-.2.134-.134.2-.878.2-2.25V7.832l21.458.042 21.459.043.046 2.025c.033 1.416.113 2.08.265 2.206.145.121 2.185.196 6.12.225l5.902.044v1.546c0 1.864.012 1.876 1.833 1.837l1.334-.029-1.417-.094-1.417-.094-.083-1.666-.083-1.667-6.042-.044-6.042-.043v-2.048c0-1.371-.066-2.114-.2-2.248-.153-.154-5.211-.2-21.75-.2h-21.55v2.166M41.546 8.458c-.253.668-.441.709-3.296.709-2.645 0-3.624.181-3.21.595.043.044.174-.035.29-.175.173-.209.704-.254 2.998-.254 2.448 0 2.817-.035 3.038-.291.27-.315.509-.875.374-.875-.046 0-.133.131-.194.291m9.787-.074c-.45.372-.666.932-.666 1.728 0 .574-.1.897-.375 1.211l-.375.427.458-.404c.382-.337.458-.54.458-1.214 0-.885.348-1.579.905-1.805.21-.084.247-.141.095-.144-.137-.003-.362.087-.5.201M34.667 9.98c0 .102.071.187.157.187.087 0 .186.356.22.791l.063.792.03-.771c.02-.513-.054-.841-.22-.979-.173-.143-.25-.15-.25-.02m10.916 1.52c-.058.095.085.167.334.167.248 0 .392-.072.333-.167-.057-.092-.207-.167-.333-.167-.127 0-.277.075-.334.167m-10.916.404c0 .131-.132.273-.292.314-.219.058-.199.081.083.096.271.014.375-.074.375-.314 0-.183-.037-.333-.083-.333-.046 0-.083.107-.083.237m9.251.428c-.167.184-.249.335-.182.335.176 0 .651-.502.561-.593-.042-.042-.213.074-.379.258m-11.463.288c.295.037.82.038 1.166.002s.104-.067-.538-.067c-.641-.001-.924.028-.628.065m-1.122.537c0 .178.068.365.151.417.084.051.114-.05.068-.225-.056-.214.018-.345.224-.398.25-.064.238-.083-.068-.098-.266-.014-.375.074-.375.304m97.367-.124c-.128.129-.2.785-.2 1.83v1.63l-3.542.045-3.541.045-.048 1.449c-.043 1.29-.086 1.461-.388 1.557-.187.06-.302.146-.256.191.462.463.775-.191.775-1.621v-1.486l3.625-.045 3.625-.045.083-1.75.084-1.75 18.375-.042 18.375-.042v3.668h5.25c4.082 0 5.252.046 5.262.208.007.115.002.71-.011 1.324-.039 1.892-.241 1.8 3.963 1.806 3.159.005 3.579.036 3.307.242-.244.185-.288.361-.204.812.125.661.205.702 1.391.693.481-.003.875.055.875.131 0 .387 1.418.025 1.5-.383.046-.229.121.408.167 1.416l.083 1.834.941.117c.517.064 1.792.153 2.833.198 1.041.044 1.911.086 1.934.091.023.006.042.916.042 2.022 0 2.636.012 2.655 1.631 2.655h1.286l-.053 4.018-.053 4.018 1.553 1.48 1.553 1.48 4.104.002c3.079.002 4.148.054 4.277.211.108.13.212 2.666.278 6.791.058 3.621.159 7.554.223 8.741l.118 2.157 4.833.01 4.833.009v31.167l-2.666.083-2.667.083.058 2.354.057 2.353-.599.113c-.33.062-1.336.061-2.237-.001-2.471-.17-2.418-.228-2.341 2.573l.062 2.275-2.833.083-2.834.084-.083 1.666c-.06 1.191-.143 1.662-.292 1.65-.114-.009-1.296-.028-2.625-.041l-2.416-.025-.019-.542c-.047-1.304-.296.851-.305 2.633-.006 1.199-.08 1.912-.21 2.042-.133.134-.139.2-.017.2.306 0 .384-.457.384-2.264V103.5h2.717c1.629 0 2.785-.068 2.887-.17.111-.112 3.704-.184 10.408-.209l10.238-.038.085-21.833c.048-12.008.104-21.852.125-21.875.022-.023 1.35-.042 2.952-.042h2.912l.047 2.459.046 2.458 2.416.083 2.417.084.052.446c.056.486.413.866.842.895.15.01 1.228.031 2.396.047l2.124.028-.106 1.967c-.152 2.835-.292 2.7 2.793 2.7h2.506l-.025 2.125a110.59 110.59 0 0 0-.012 2.338c.01.164.57.202 2.472.166l2.458-.046.044-5.375.044-5.375-1.544-.014c-.849-.008-1.919-.065-2.377-.125l-.834-.111-.094-1.416-.094-1.417-.031 1.524c-.037 1.838-.209 1.726 2.65 1.726h2.153v5.838l-4.875-.044-4.875-.044-.023-2.123c-.031-2.866.227-2.61-2.679-2.664l-2.465-.046-.083-.584-.084-.583-2.537-.046-2.537-.046-.046-2.454-.046-2.454-2.75-.045-2.75-.046V46.75l-2.209-.047-2.208-.046v-2.482c0-3.321.297-3.008-2.851-3.008-2.001 0-2.652-.051-2.662-.209-.024-.405-.087-2.731-.12-4.5l-.034-1.791h-2.649c-3.132 0-2.851.267-2.851-2.706v-2.178l-2.805.094-2.805.095.075-1.777c.043-1.01.013-1.719-.069-1.64-.08.076-.183.826-.229 1.666l-.083 1.529-2.334.047c-2.251.046-2.364.031-3.226-.404-.622-.314-1.165-.455-1.791-.464l-.897-.012-.001-1.949c-.002-2.332.161-2.18-2.41-2.253-3.691-.104-3.341.16-3.341-2.523v-2.109l-1.694-.009c-1.155-.006-1.778-.079-1.961-.231-.21-.174-1.014-.208-3.723-.157l-3.456.064-.049-1.408c-.069-1.995.393-1.842-5.554-1.842h-5.147v-3.667h-18.466c-14.141 0-18.514.047-18.667.2m-84.95.9c0 .312.056.567.125.567s.125-.221.125-.49c0-.27-.056-.525-.125-.568-.069-.042-.125.179-.125.491M31.333 15c0 .183-.075.333-.166.333-.092 0-.167.085-.167.187 0 .136.064.135.232-.005.28-.233.464-.848.252-.848-.083 0-.151.15-.151.333m9.624-.042c-3.376.065-3.662.188-3.803 1.639-.159 1.643-.225 1.736-1.231 1.736-.825 0-1.798.329-2.015.682-.055.088.171.008.501-.178.397-.222.906-.337 1.501-.337 1.083 0 1.423-.462 1.423-1.93 0-1.287.306-1.403 3.693-1.403 1.649 0 2.641-.063 2.641-.167 0-.092-.019-.15-.042-.13-.023.021-1.224.06-2.668.088m147.793.55-2 .092 2.042.033 2.041.034v1.8c0 1.177.069 1.869.2 2 .15.15 2.228.2 8.326.2h8.126l.049 1.208.049 1.208 2.864.046 2.864.045-.065.538c-.337 2.765-.476 2.621 2.537 2.621h2.384v1.975c0 2.633-.134 2.525 3.133 2.525h2.523l.047 2.125.047 2.125 2.541.046 2.542.046v1.978c0 2.359-.219 2.18 2.675 2.18h2.147l.048 1.875.047 1.875 2.25.084 2.25.083.083 2.25.083 2.25 2.453.046 2.453.046.056 1.871.056 1.87-.009-1.916-.009-1.917-2.416-.083-2.417-.084-.083-2.25-.084-2.25-2.291-.046-2.292-.046v-1.895c0-2.25.134-2.132-2.235-1.987-.945.058-1.923.054-2.173-.009l-.454-.114.056-1.951.056-1.952-2.542-.046-2.541-.046v-2.069c0-2.514.249-2.318-3.084-2.422l-2.666-.083-.047-2.125-.047-2.125H213.306l.03-1.459c.016-.802.022-1.541.013-1.642-.011-.129-.849-.159-2.841-.102l-2.826.082-.049-1.232-.05-1.231-8.25-.087c-4.537-.048-8.268-.104-8.291-.125-.023-.021-.042-.896-.042-1.944 0-1.049-.056-1.931-.125-1.959-.069-.028-1.025-.01-2.125.04m-159.201.311c-.971.079-2.177.514-1.426.514a.389.389 0 0 0 .294-.166c.056-.092.623-.167 1.26-.167.66 0 1.156-.072 1.156-.167 0-.091-.018-.154-.041-.139-.023.014-.582.071-1.243.125m-1.47 1.757c.002.398.061.69.129.648.162-.1.158-.915-.006-1.173-.07-.11-.125.127-.123.525m-.746 1.584c0 .088-.618.182-1.375.208-1.516.054-1.776.309-1.273 1.25.169.316.173.471.015.723-.11.177-.2.467-.2.645 0 .177-.131.362-.292.409-.227.067-.218.078.042.052.229-.023.35-.176.386-.49.029-.251.123-.457.208-.457.216 0 .196-.726-.025-.947-.575-.575-.109-.968 1.208-1.018 1.048-.04 2.431-.535 1.493-.535-.102 0-.187.072-.187.16m79.693.283c-.169.183-.58.235-1.667.208l-1.442-.035-.05 1.109-.049 1.108H98.679l-.048 1.625-.048 1.625-2.5.084-2.5.083-.083 2.083-.083 2.084-2.584.083-2.583.083-.046 2.084-.046 2.083-2.412-.05-2.413-.05.039 3.966.038 3.967.048-3.886.048-3.886 2.372.037 2.372.037.047-2.026.047-2.026h2.461c2.955 0 2.861.06 2.864-1.825.001-.783.048-1.706.105-2.05l.103-.625h2.278c2.742 0 2.678.043 2.678-1.783v-1.383h2.32c2.966 0 2.847.054 2.847-1.31l.001-1.107h1.569c1.543 0 1.856-.07 1.739-.39-.032-.088-.16-.051-.283.083m-55.204.179c-.19.251-.188.264.011.086.174-.155 1.346-.208 4.617-.208h4.383v2.595c0 3.322.271 3.072-3.321 3.072-1.565 0-2.845.056-2.846.125 0 .068 1.304.103 2.898.076 3.719-.063 3.459.189 3.399-3.303l-.046-2.648-4.436-.045c-4.075-.04-4.454-.02-4.659.25m67.053-.003c.252.039.665.039.917 0 .252-.038.045-.069-.459-.069s-.71.031-.458.069m-3.648.298c-.08.208-.55.25-2.795.25-3.296 0-3.099-.15-3.099 2.349 0 2.331.236 2.151-2.813 2.151-2.845 0-2.687-.149-2.687 2.533v2.133h-2.55c-3.16 0-2.95-.192-2.95 2.7v2.3h-2.396c-2.971 0-2.809-.147-2.884 2.635l-.056 2.115-2.207.084c-2.83.107-2.623-.103-2.623 2.656 0 2.863.132 2.722-2.484 2.649-2.375-.066-2.177-.314-2.181 2.736l-.002 2.125h-.883c-.486 0-1.086.094-1.332.209l-.449.208-.001 4.688c-.002 5.622.225 5.154-2.423 4.996L76.5 59.32v1.34c0 .782-.069 1.34-.167 1.34-.307 0-.218 8.324.09 8.442.142.054 2.71.108 5.709.12l5.451.021.084 2.334.083 2.333 12.667.127c6.966.07 15.422.108 18.79.084 5.209-.038 6.137-.008 6.215.196.111.29.077 4.229-.041 4.679-.082.312-.505.32-18.63.328l-18.546.008-.113-.753-.112-.752H82.511l-.047-1.792-.047-1.792-9.189-.043-9.188-.043-.101.377c-.056.207-.102 1.177-.103 2.156-.003 2.427-.15 2.323 3.225 2.294l2.689-.023.083 2.308.084 2.308 2.774.045c3.36.056 3.102-.191 3.16 3.014l.046 2.56-2.319-.027c-2.772-.031-2.572.171-2.575-2.601-.004-2.779.274-2.575-3.504-2.575-4.119 0-3.692-.632-3.6 5.335.042 2.703.079 5.866.084 7.028.009 2.55-.206 2.393 3.044 2.225l2.306-.119v1.777c0 2.578-.196 2.428 3.131 2.384l2.786-.037-2.691-.051c-1.961-.036-2.741-.109-2.872-.267-.116-.14-.197-1.651-.226-4.205l-.044-3.986-2.538-.03c-1.396-.016-2.614-.077-2.708-.135-.207-.127-.24-9.356-.035-9.483.157-.097 6.352-.174 6.434-.081.03.034.096 1.092.148 2.352.117 2.868-.124 2.627 2.632 2.627h2.329l-.048 2.125-.048 2.125 5.5.083 5.5.083.047 2.489c.027 1.488.119 2.577.228 2.708.228.275 6.395.327 6.225.053-.062-.1-1.219-.166-2.913-.166-3.687 0-3.337.277-3.336-2.643l.001-2.441 5.583-.04 5.582-.04v5.149l.542.101c.298.056 1.254.078 2.125.049.87-.028 2.708-.017 4.083.027l2.5.078-3.917.093c-2.154.051 4.409.096 14.584.101 10.175.004 18.012-.038 17.416-.094-.787-.074-.239-.123 2-.18 3.84-.096 3.5.18 3.5-2.837V95h2.731c3.225 0 2.93.281 2.934-2.792l.002-2.041 2.042-.002c1.123-.001 2.323-.048 2.666-.105l.625-.104-.002 2.397c-.003 3.066.219 2.833-2.742 2.868l-2.46.029-.048 1.448c-.032.993-.131 1.567-.314 1.829-.147.209-.267.699-.267 1.089v.709l-2.708.046-2.709.046-.047 1.958-.047 1.958h-2.711c-3.194 0-3.111-.043-3.111 1.617v1.217h-15.239c-9.314 0-15.403-.062-15.66-.16-.389-.148-.423-.25-.469-1.375l-.049-1.215-4.819-.045c-5.618-.051-5.31.045-5.235-1.637.03-.662-.002-1.169-.071-1.126-.189.117-.15 2.2.048 2.569.164.307.398.322 5.083.322h4.911v1.135c0 1.987-1.847 1.774 15.915 1.834 17.496.058 15.95.2 15.916-1.456a32.747 32.747 0 0 1-.011-1.301c.01-.15.745-.216 2.805-.25l2.791-.045.042-1.584c.067-2.559-.231-2.317 2.919-2.371l2.706-.045.05-.862c.069-1.186.118-1.206 3.045-1.259l2.572-.046v-8.333l-2.75.06c-1.513.033-2.765.072-2.783.088-.018.015-.085 1.093-.149 2.394l-.118 2.366-2.767.046-2.767.046-.046 2.542-.046 2.542-21.12-.042-21.121-.042-.083-2.5-.084-2.5-5.25-.035a1531.37 1531.37 0 0 1-5.531-.042c-.201-.005-.301-.186-.347-.632l-.066-.625-.028.629-.028.63-2.694-.046-2.695-.046.04-2.159c.041-2.177.192-2.88.566-2.637.313.203 4.961.326 4.895.129-.031-.095-1.053-.202-2.375-.25-2.577-.092-2.737-.141-2.737-.843 0-.269-.07-.49-.156-.49s-.179-.244-.208-.542c-.033-.337-.147-.547-.302-.558-.597-.038-.667-.088-.667-.47 0-.222-.131-.634-.292-.915l-.291-.513-1.959-.001C76.111 85.5 76 85.481 76 85.167c0-.321-.111-.334-2.917-.334h-2.916v-2.24c0-2.692.296-2.458-3.139-2.486l-2.778-.024V75.75h18l.047 1.792.048 1.791H87.814l.051.709.052.708 18.875.042 18.875.043.021-1.543c.012-.848.03-1.999.042-2.558.035-1.765.968-1.623-10.145-1.549-5.317.036-13.7.046-18.627.023L88 75.167v-2.153c0-1.185-.046-2.272-.101-2.417-.09-.233-.751-.264-5.724-.264h-5.624l-.108-2.125c-.161-3.154-.134-6.006.057-6.125.092-.056.167-.642.166-1.301v-1.199l1.85.053c2.687.076 2.484.496 2.484-5.149V49.86l.542-.124a7.71 7.71 0 0 1 1.662-.222l.454-.014.046-2.375.046-2.375 1.917-.042c2.777-.062 2.666.052 2.666-2.726 0-2.741-.163-2.568 2.364-2.503 2.837.074 2.636.256 2.636-2.397 0-2.666-.241-2.444 2.775-2.547l2.392-.081v-2.277c0-2.866-.208-2.677 2.95-2.677H104v-4.47l1.375-.085a56.112 56.112 0 0 1 2.589-.092c1.6-.01 1.536.08 1.536-2.163 0-2.509-.201-2.357 3.117-2.357 1.756 0 2.716-.06 2.716-.172 0-.094.169-.24.375-.322l.375-.151-.38-.011c-.209-.006-.423.102-.476.24m-84.531 2.302c-.307.327-.363.581-.363 1.667v1.281h-1.256c-1.89 0-2.077.174-2.077 1.936V28.5h-1.48c-1.953 0-1.872-.146-1.845 3.329.019 2.532-.013 2.904-.279 3.225l-.3.363.386-.356c.375-.345.388-.447.411-3.333l.024-2.978 1.583-.083 1.583-.084.05-1.328c.066-1.773.186-1.895 1.929-1.957l1.355-.048.049-1.331c.04-1.085.115-1.4.404-1.708.195-.208.317-.378.271-.378-.045 0-.246.174-.445.386m20.387.114c-.429.265-.874.311-3.137.321-2.768.013-3.116.102-3.11.792.002.236.05.21.213-.113.209-.414.225-.417 2.789-.461 2.516-.043 3.445-.219 3.748-.71.13-.21.094-.198-.503.171m-29.894 1.792c.015 1.044.055 1.293.138.875.064-.321.081-.936.039-1.368l-.077-.784 1.397-.057 1.397-.056-1.458-.034-1.458-.034.022 1.458m24.007.25c-.016.435-.104.792-.196.792-.092 0-.167.091-.167.202 0 .134.089.114.261-.058.182-.182.241-.482.196-.994l-.065-.734-.029.792m156.675.654c-.113.113-.197.396-.188.629l.017.425.115-.416.116-.417 2.614-.083 2.613-.084.046 2.167.046 2.167 3.031.045 3.031.045.052.428.053.428 2.25.027 2.25.027.045 1.916c.058 2.447-.091 2.334 3.07 2.334h2.468l.012 1.125c.007.618.074 1.462.149 1.875.102.562.131.27.113-1.167l-.024-1.917-2.642-.114c-3.156-.137-2.825.135-2.964-2.437a102.945 102.945 0 0 0-.13-2.157c-.007-.023-1.018-.042-2.246-.042-1.815 0-2.25-.046-2.327-.246-.077-.202-.628-.254-3.059-.291l-2.965-.046-.084-2.167-.083-2.166-2.588-.046c-1.871-.033-2.644.011-2.791.158m-157.704.585c-.229.038-.53.115-.667.171-.138.056-.306.089-.375.075-.069-.015-.125.048-.125.14 0 .092.071.167.157.167.086 0 .203-.075.26-.167.056-.092.361-.167.676-.167.316 0 .574-.075.574-.166 0-.092-.019-.157-.042-.144a4.417 4.417 0 0 1-.458.091m10.03.089c-.112.112-.197.672-.197 1.297 0 1.525.051 1.5-3.083 1.5-2.701 0-3.579.155-3.582.631-.001.137.131.092.363-.125.337-.314.577-.339 3.179-.339 3.353 0 3.29.031 3.29-1.641 0-.781.068-1.189.208-1.239.115-.041.166-.121.114-.178-.052-.057-.183-.015-.292.094m-36.13.339-.317.375.399-.334c.286-.238.42-.274.473-.125.047.136.372.199.934.18l.861-.03-.75-.064c-.413-.036-.822-.135-.909-.221-.233-.23-.339-.196-.691.219m23.725-.029c-.3.175-.411.82-.141.82.083 0 .112-.15.064-.333-.061-.232-.005-.333.182-.333.148 0 .27-.075.27-.167 0-.201-.008-.201-.375.013m-.459 2.82c-.202.281-.431.334-1.453.334-.667 0-1.214.056-1.214.125-.001.348 2.47.012 2.846-.388.209-.222.308-.404.221-.404-.088 0-.268.15-.4.333m5.965 1.631c.085 1.172-.183 1.369-1.86 1.369-.901 0-1.101.058-1.438.417-.215.229-.32.417-.233.417.088 0 .268-.15.4-.334.199-.277.431-.333 1.376-.333 1.72 0 2.584-1.088 1.819-2.293-.074-.116-.102.225-.064.757m-9.048.552c0 .541.056.984.125.984s.125-.408.125-.907c0-.499-.056-.941-.125-.984-.069-.042-.125.366-.125.907m168.917 1.3c0 2.763-.294 2.517 3.013 2.517h2.487v6.141l-2.459.012c-3.121.016-2.857.287-2.912-2.993l-.046-2.743-2.829-.046c-1.556-.025-2.893-.11-2.971-.188-.078-.078-.089-1.199-.023-2.491l.119-2.349 2.352-.052c1.294-.028 2.558-.067 2.81-.087l.459-.037v2.316M17.5 32.333c0 .099-.61.167-1.497.167-1.651 0-1.871.176-1.595 1.277.387 1.541.136 5.218-.356 5.222a.377.377 0 0 0-.292.152c-.052.083.055.112.237.065.676-.177 1.115-4.175.594-5.412-.358-.852-.099-1.051 1.435-1.102 1.017-.034 1.503-.12 1.646-.292.142-.171.146-.243.015-.243-.103 0-.187.075-.187.166m17.348.445c-.183.207-.192.333-.041.575.236.378.257 1.647.026 1.647-.091 0-.166.106-.166.236s-.094.274-.209.32c-.142.058-.129.088.042.096.534.026.92-1.832.474-2.278-.418-.418.159-.692 1.583-.75l1.36-.056-1.417-.028c-1.111-.021-1.467.03-1.652.238m9.007 1.234c.203.906.119.988-1.022.988-.539 0-1.015.056-1.057.125-.043.069.377.107.933.085 1.065-.042 1.802-.432 1.462-.773-.094-.094-.171-.338-.171-.544 0-.205-.067-.415-.149-.465-.086-.053-.084.192.004.584M21.44 35.129c-.044.071.251.127.656.125.405-.002.737-.06.737-.129.001-.166-1.291-.162-1.393.004m-1.076.407c-.271.271-.275 5.153-.004 5.424.425.425-.162.707-1.476.707-1.854 0-1.748-.317-1.725 5.168l.019 4.665h-3.005c-2.865 0-3.006-.015-3.006-.323 0-.178.075-.37.166-.427.214-.132.228-10.287.014-10.508-.083-.087-.186-.346-.227-.575-.075-.417-.075-.417-.097.031-.013.247.052.495.144.552.238.147.227 10.417-.011 10.417-.098 0-.154.206-.125.458l.052.458h6.167l.044-4.652c.052-5.398-.046-5.098 1.655-5.098.854 0 1.316-.074 1.48-.238.273-.273.319-.762.071-.762-.262 0-.222-5.119.042-5.213.114-.041.165-.121.114-.178-.052-.057-.184-.014-.292.094m20.362-.005c-.449.698-.56 1.035-.398 1.197.095.095.172.494.172.889v.716h-1.157c-.636 0-1.203.075-1.26.167-.056.092-.286.167-.51.167h-.406l.037 3.125.038 3.125.049-3.042c.046-2.785.075-3.042.346-3.042.163 0 .368-.071.455-.158.087-.087.683-.181 1.325-.208l1.166-.05.052-.721c.029-.396-.032-.822-.134-.945-.19-.229.039-.851.411-1.117.089-.064.115-.162.058-.219-.057-.057-.167-.005-.244.116m-9.282.413c-.156.157-.138.853.026.954.075.046.104-.133.065-.4l-.071-.484 1.393-.056 1.393-.057-1.347-.034c-.741-.018-1.397.016-1.459.077m24.696.014c3.76.039 4.599.091 4.803.295.151.15.173.247.058.247-.134 0-.179.735-.154 2.542l.036 2.541-2.963.046c-3.613.056-3.92.177-3.92 1.551 0 .454.094.983.208 1.177.167.283.167.368 0 .429-.114.041-.208.153-.208.248 0 .105.099.091.25-.034.28-.233.34-.833.083-.833-.361 0-.184-1.592.219-1.971.366-.344.537-.363 3.324-.363 3.496 0 3.199.262 3.142-2.766-.031-1.641.013-2.4.146-2.482.135-.084.107-.21-.096-.435-.27-.298-.551-.314-4.885-.278l-4.6.039 4.557.047m-4.398 1.886c.005.36.064.655.133.655.168.001.161-1.124-.008-1.228-.073-.045-.129.213-.125.573m172.111.767a2.214 2.214 0 0 1-.121.459c-.075.194.002.263.292.261.228-.002.314-.054.204-.125-.104-.068-.227-.273-.273-.456-.046-.183-.092-.246-.102-.139m-172.728.342c-.252.038-.458.129-.458.202 0 .17.809.018.929-.175.05-.081.067-.135.039-.122a4.61 4.61 0 0 1-.51.095m-2.936.745c-.012.247.053.495.144.552.233.144.209 1.094-.041 1.632-.201.431-.26.449-1.542.455-1.58.008-2.533.596-1.75 1.08.103.063.167 1.474.167 3.676 0 2.271-.061 3.574-.167 3.574-.232 0-.209.557.033.8.27.269 5.563.282 5.729.014.063-.102.1-1.458.083-3.013-.024-2.117.023-2.896.187-3.105.197-.253.189-.257-.083-.043-.272.214-.298.517-.27 3.167l.032 2.93-2.776.045c-2.863.048-3.385-.078-2.79-.673.246-.246.267-7.456.022-7.456-.293 0-.179-.481.155-.66.178-.095.928-.173 1.667-.173 1.233 0 1.344-.028 1.344-.333 0-.184.075-.334.167-.334.209 0 .221-1.377.014-1.591-.084-.087-.186-.346-.227-.575-.075-.417-.075-.417-.098.031m180.265-.23c.141.089.217.867.25 2.539l.046 2.41 2.459.083c1.352.046 2.458.035 2.458-.024-.001-.237-.626-.309-2.681-.309h-2.153V41.75c0-2.191-.027-2.416-.291-2.414-.203.002-.23.042-.088.132M31.25 42c-.24.265-.513.333-1.34.333-.597 0-1.241.106-1.516.249-.302.158-.374.25-.196.25.156.001.329-.074.385-.165.057-.092.611-.167 1.231-.167.988 0 1.177-.052 1.519-.417.216-.229.353-.416.305-.416-.047 0-.222.15-.388.333m47.708-.101c-.25.19-.291.517-.291 2.32v2.1l-1.209.049-1.208.049-.046 2.285-.047 2.286-1.579.057-1.579.057 1.626-.009 1.625-.01.046-2.284.047-2.285 1.203-.048 1.204-.049.047-2.073c.059-2.614-.063-2.489 2.511-2.553l2.109-.052-2.084-.031c-1.515-.022-2.163.03-2.375.191m-50.875 5.268c0 1.999.057 3.6.125 3.557.069-.042.125-1.643.125-3.557 0-1.915-.056-3.515-.125-3.558-.068-.042-.125 1.559-.125 3.558m205.634 0c0 .504.031.71.069.458a3.702 3.702 0 0 0 0-.917c-.038-.252-.069-.045-.069.459m-10.921 2.728c.056 3.661.243 3.404-2.421 3.336l-2.125-.053-.045-3.177-.046-3.177 2.296.046 2.295.047.046 2.978m10.893-1.208-.022.604 2.33.074c2.812.09 2.569-.141 2.67 2.523l.083 2.195 2.333.167c1.284.092 2.427.227 2.542.302.132.085.208.048.208-.102 0-.294-1.134-.447-3.341-.449L238.9 54l-.045-2.208c-.057-2.846.082-2.709-2.736-2.709h-2.202l-.103-.5c-.102-.493-.104-.491-.125.104m-67.692 2.572c-.09.236-.165.856-.166 1.377-.004 1.767.114 1.681-2.391 1.734l-2.19.047-.046 2.19c-.055 2.575.141 2.387-2.488 2.391l-1.701.002-.086.542c-.048.298-.07 1.385-.049 2.416l.037 1.875h-1.782c-.98 0-1.826.072-1.88.159-.189.306-.095 19.716.097 19.947.122.147.751.232 1.956.264l1.775.047.084 1.5.083 1.5 1.952.047 1.953.047.047 1.62.048 1.619 2.37.047 2.369.046.047 1.87.047 1.871 5.634.083c3.454.051 5.695.022 5.792-.075.087-.087.158-.966.158-1.953v-1.796l2.208-.046 2.208-.047v-3l1.779-.083c.978-.046 1.841-.146 1.917-.222.245-.245.334-3.112.096-3.112-.151.001-.208.412-.208 1.501v1.5h-1.678c-2.36 0-2.373.01-2.229 1.845l.116 1.488h-2.071c-2.557 0-2.472-.073-2.472 2.117v1.716H166.178l-.048-1.875-.047-1.875-2.333-.083-2.333-.083-.084-1.584-.083-1.583-1.857-.047c-2.141-.054-2.053.026-2.057-1.878-.003-1.448-.065-1.492-2.094-1.492h-1.69l-.11-3.458c-.157-4.936-.149-16.068.011-16.228.074-.074.921-.156 1.882-.182l1.748-.048.047-2.375.046-2.375h1.84c2.588 0 2.484.105 2.484-2.501V54.51l2.208-.047 2.209-.046.04-.667c.022-.367.083-1.117.134-1.667l.093-1.001 5.575-.001 5.574-.001v1.51c0 1.959-.065 1.91 2.528 1.91 2.562 0 2.483-.074 2.459 2.317-.022 2.127-.133 2.016 2.023 2.016h1.824v2.475c0 2.32.022 2.493.357 2.791.266.236.377.263.433.102.057-.163.131-.169.305-.025.147.123.768.17 1.734.132l1.504-.058v9.863c0 9.253-.018 9.867-.292 9.939-.219.057-.199.081.084.095l.375.02V73.982c0-9.64-.016-10.177-.292-10.049-.484.226-2.868.281-3.119.072-.157-.13-.26-.134-.335-.012-.381.616-.588-.375-.588-2.814v-2.512H182.5v-1.739c0-.957-.073-1.932-.163-2.167l-.162-.428h-2.15c-2.572 0-2.495.058-2.56-1.925l-.048-1.491-5.629-.044-5.628-.044-.163.43m77.503-.235c0 .237.626.309 2.68.309h2.153v2.074c0 1.202.07 2.117.167 2.176.096.06.167.964.167 2.145 0 2.686-.086 2.591 2.376 2.619 2.323.026 2.108-.278 2.166 3.07l.041 2.333 2.124.047 2.123.046.045 8.704.046 8.703-.002-8.75-.003-8.75-2.125-.047-2.125-.046v-2.545c0-3.123.143-2.945-2.366-2.945H249v-2.256c0-1.85-.045-2.272-.25-2.351-.204-.078-.25-.488-.25-2.244 0-1.182-.019-2.162-.042-2.178-.134-.091-4.959-.202-4.958-.114M72.204 53.542l-.037 2.625h-1.834l.012 3.958c.007 2.177.072 5.383.145 7.125s.083 3.223.021 3.293c-.062.069-2.509.132-5.437.14-3.379.01-5.4.078-5.532.186-.148.122-.209.816-.209 2.381 0 2.7.135 2.56-2.51 2.62l-2.073.047-.043 10.12-.043 10.12 2.126.046 2.127.047.046 2.105.047 2.106 2.12.066c2.687.085 2.537-.036 2.537 2.04 0 2.188.067 2.266 1.966 2.266h1.356l.047 1.959.047 1.958 1.917.088c2.424.111 2.276-.025 2.366 2.173.092 2.228 0 2.143 2.314 2.122.975-.008 1.858.038 1.963.102.343.212.253 3.71-.101 3.93-.267.165-.263.176.041.131.373-.056.613-3.833.266-4.181-.09-.089-1.048-.17-2.131-.18l-1.968-.018-.167-1.917c-.216-2.489-.054-2.333-2.426-2.333h-1.99v-1.911c0-1.929-.146-2.345-.785-2.239-.073.013-.638.014-1.257.003L64 104.5v-1.808c0-2.402.05-2.359-2.716-2.359h-2.107l-.047-2.125-.047-2.125-2.125-.046-2.125-.047V76h2.084c2.866 0 2.835.033 2.696-2.858-.077-1.625-.053-2.145.101-2.155.111-.007 2.504-.002 5.316.012 3.293.016 5.23-.037 5.44-.15.315-.168.395-8.284.132-13.391l-.057-1.125h.816c1.023 0 .992.098.931-2.924l-.052-2.492-.036 2.625m-42.837-1.918c.797.03 2.147.031 3 0 .852-.03.2-.055-1.45-.055s-2.348.024-1.55.055m58.139 1.865c-.095.177-.162.684-.149 1.125l.023.803.105-.865c.211-1.73.348-1.045.348 1.733 0 2.342-.044 2.878-.254 3.052-.139.116-.218.246-.174.29.424.425.595-.564.595-3.448 0-2.927-.094-3.438-.494-2.69m153.454.129c.208.04.508.038.667-.003.159-.042-.01-.075-.377-.073-.367.002-.497.036-.29.076m-72.682 5.16c-.061.061-.111.923-.111 1.916V62.5h-.589c-.369 0-.624.093-.684.25-.053.137-.228.25-.388.25-.161 0-.434.196-.608.435a8.174 8.174 0 0 1-.56.692c-1.273 1.331-.786 6.79.611 6.863.11.005.298.216.418.468.146.306.371.476.676.511.255.03.457.156.457.286 0 .539 3.008.863 3.667.396.193-.138.147-.156-.202-.08-.968.211-3.298-.092-3.298-.429 0-.23-.124-.309-.484-.309-.388 0-.518-.099-.658-.5-.096-.275-.291-.5-.433-.5-.142 0-.259-.077-.259-.172 0-.095-.225-.392-.5-.661l-.5-.489v-2.162c0-1.262.07-2.206.167-2.266.092-.056.167-.208.167-.336 0-.319 1.258-1.58 1.576-1.58a.254.254 0 0 0 .257-.25c0-.181.185-.25.661-.25h.661l.048-1.875.047-1.875 3.666-.052c2.017-.028 4.583-.002 5.703.058l2.036.11.048 1.775.047 1.775 1.041.05c.573.027 1.042.114 1.042.192 0 .079.338.341.75.583.412.242.75.546.75.676 0 .131.14.312.31.404.768.411.817 4.734.065 5.788-.206.289-.375.602-.375.696 0 .095-.167.195-.371.225-.204.029-.45.214-.548.41-.411.828-.557.893-2.01.893-1.534 0-2.163-.197-2.3-.721-.05-.191-.138-.301-.195-.244-.056.057-.02.258.081.447.607 1.135 3.931 1.111 4.479-.033.124-.257.406-.537.628-.621.221-.084.403-.224.403-.311s.191-.385.424-.663c.808-.96.596-6.187-.251-6.187-.083 0-.198-.15-.257-.334-.058-.183-.179-.333-.268-.333-.182 0-.498-.236-1.058-.792-.294-.291-.495-.352-.895-.272-1.207.241-1.365.056-1.259-1.48.056-.814.022-1.559-.084-1.831l-.177-.458h-5.727c-3.149 0-5.776.05-5.837.111m-9.574 7.556c-.91.555-.98 1.016-.606 3.965.145 1.141.537 1.369 2.352 1.365 1.66-.003 1.643.013 1.802-1.664.35-3.684.207-4-1.812-3.999-.895 0-1.325.083-1.736.333m3.261 1.557c.063 1.93.041 1.953-1.771 1.853-2.11-.117-2.027-.056-2.027-1.491 0-1.686.307-1.933 2.333-1.876l1.417.04.048 1.474m12.154-.954c-.066.065-.119.751-.119 1.523 0 1.251-.035 1.414-.324 1.489-.218.057-.341.256-.375.61-.045.458-.124.535-.627.608-.566.082-.777.381-.822 1.166-.012.223.004.223.148 0 .089-.137.163-.414.164-.615.002-.3.112-.374.628-.416.57-.047.629-.099.677-.594.03-.313.146-.541.274-.541.333 0 .424-.395.424-1.847V67h1.666v1.321c0 1.197.038 1.351.401 1.637.221.174.427.496.459.716.064.453.718.853 1.123.688.203-.083.167-.123-.149-.168-.568-.081-.834-.329-.834-.778 0-.231-.123-.409-.318-.46-.259-.068-.337-.294-.425-1.228-.059-.63-.123-1.295-.141-1.478-.033-.342-1.543-.601-1.83-.313m54.325 9.174c-.156.157-.134 8.595.024 8.843.089.141.867.217 2.539.25l2.41.046.046 2.206c.055 2.609-.167 2.415 2.682 2.342l1.895-.048-.006-2.125-.006-2.125H243.167v10.333H238.7c-5.241 0-4.867-.149-4.867 1.946v1.545l-2.375.051-2.375.052 2.459.036L234 99.5v-1.563c0-2.068-.355-1.923 4.847-1.976l4.403-.044v-10.5l-2.629-.046-2.63-.046.046-2.538.046-2.537 2.959-.046 2.958-.045v1.74c0 1.767.079 2.268.357 2.268.089 0 .081-.137-.018-.323-.095-.177-.172-1.103-.172-2.058v-1.735l-2.867-.097c-3.688-.125-3.466-.264-3.469 2.177-.002 1.074-.058 1.873-.125 1.776-.068-.096-1.21-1.144-2.539-2.328-1.329-1.183-2.454-2.202-2.5-2.263-.155-.209-3.916-3.314-4.014-3.315-.054-.001-.147.049-.209.11m29.01 7.767c-.09.236-.431.287-2.239.331l-2.132.052 2.084.034c2.087.033 2.604-.066 2.467-.476-.053-.159-.102-.143-.18.059M151.833 97.927c0 .132-.112.24-.25.24-.28 0-.291-.031-.149-.402.117-.306.399-.191.399.162m76.837 1.698a754.9 754.9 0 0 1-.049 3.92c-.03 2.087.004 3.887.074 4 .097.157 1.224.191 4.799.143l4.673-.061v2.343c0 2.802-.273 2.566 2.925 2.539l2.575-.022v9.189l-2.375-.046-2.375-.047-.084-2.195c-.101-2.678.144-2.46-2.847-2.528l-2.486-.057v-2.055c0-2.808.218-2.581-2.476-2.584-2.928-.003-2.753.148-2.827-2.447-.073-2.581.26-2.296-2.718-2.321-1.371-.012-2.539-.068-2.596-.124-.124-.124-15.808-.124-15.932-.001-.047.047-1.312.099-2.81.116l-2.724.03-.084 2.333-.083 2.333-2.667.084-2.666.083-.047 2.156c-.061 2.808.094 2.663-2.7 2.529-2.833-.135-2.65-.292-2.706 2.322l-.047 2.16-1.75.104c-.963.058-2.092.114-2.509.125l-.758.021-.219 1.233c-.227 1.277-.132 12.928.145 17.808.016.27 9.95.145 10.177-.128.153-.184.226-1.413.27-4.541.034-2.359.107-6.567.164-9.351l.102-5.063.939.141a11.61 11.61 0 0 0 1.855.098l1.667-.079.75-.035.119 9.833c.066 5.409.179 10.959.25 12.334l.131 2.5 2.708.045 2.709.046.002 2.371c.003 3.024-.267 2.77 3.005 2.825l2.743.046.048 1.375.048 1.375h5.82v-1.327c0-1.207-.034-1.346-.375-1.525-.592-.312-.619-.436-.622-2.834l-.003-2.27-2.291.078c-1.261.043-2.386.155-2.5.249-.473.386-.709-.179-.709-1.699 0-2.005-.152-2.172-1.984-2.172-1.418 0-2.585.386-2.792.924-.181.473-.515.236-.624-.441-.077-.48-.205-.708-.432-.768a.69.69 0 0 1-.429-.419c-.099-.312-.216-.329-1.714-.257-2.925.141-2.682 1.067-2.709-10.289-.012-5.042-.07-9.392-.129-9.667l-.107-.5h-5.567l-.091 3.834c-.051 2.108-.09 5.352-.087 7.209.006 4.116.011 4.092-.976 4.564-.426.204-.822.44-.879.524-.123.181-.813-.146-.813-.386 0-.169-3.186-.097-4.093.093-.344.073-.573.031-.704-.127-.397-.479-1.749.019-1.632.601.052.264.096.803.096 1.199 0 .685.024.721.541.785.421.053.367.074-.242.094-.856.029-1.136-.455-.919-1.591.047-.246-.098-1.426-.322-2.623-.507-2.707-.553-13.45-.058-13.763.137-.087 1.225-.16 2.416-.163 2.752-.006 2.564.168 2.62-2.423l.047-2.16 2.54-.046c2.978-.054 2.69.229 2.752-2.704l.041-1.917 2.612-.083c3.131-.1 2.827.169 2.86-2.528l.028-2.222 3.75-.134c5.805-.208 22.35-.025 22.523.249.077.12.14 1.048.141 2.061.004 2.472-.108 2.371 2.698 2.437 2.754.065 2.537-.142 2.638 2.525l.084 2.195 2.5.084 2.5.083.047 2.164c.057 2.642-.121 2.477 2.611 2.434l2.259-.035.166.438c.244.641.225 18.773-.02 19.31-.2.438-.58.6-1.418.603-.286.002-.755.05-1.041.107l-.521.104-.007 1.188c-.009 1.472-.217 2.598-.516 2.791-.413.266-1.493.5-2.031.439l-.529-.06.416-.189c.357-.162.236-.191-.841-.2-.692-.006-1.33.059-1.417.145-.087.085-.456.179-.821.208l-.662.053.052 2.131c.069 2.796.272 2.619-2.998 2.619-1.455 0-2.65.056-2.654.125-.005.069-.04.744-.078 1.5l-.07 1.375h10.577l.164-.375c.157-.357.268-.377 2.274-.422 1.488-.032 2.162-.11 2.29-.265.168-.202.197-5.9.186-36.48l-.002-4.625h-5.5V107.5h-9.511l.047-4c.026-2.2-.009-4-.077-4a.121.121 0 0 0-.122.125m-152.993 7.416c.052 1.765.108 3.228.125 3.251.017.023 1.306.041 2.865.041H81.5v1.397c0 1.947-.394 1.824 5.377 1.681 6.163-.153 5.601-.358 5.659 2.057l.047 1.949 5.287.044 5.287.044.047 2.206.046 2.206 2.583.083 2.584.083.025 1.834c.014 1.008.033 2.039.042 2.291l.016.459h2.32c3.126 0 2.847-.264 2.847 2.684v2.482h2.3c2.891 0 2.7-.207 2.7 2.93 0 2.035.048 2.57.247 2.735.194.161 3.457.193 14.909.146 9.642-.04 14.709-.004 14.804.106.079.092.112 1.16.075 2.375l-.069 2.208h-12.894c-12.703 0-12.897.005-13.071.332-.123.228-.142 2.022-.063 5.74l.114 5.409-.401.094c-.221.051-1.295.112-2.388.134-1.596.033-2.001.09-2.062.291-.062.202-.034.21.144.042.153-.144.87-.208 2.321-.208 2.76 0 2.5.616 2.5-5.933 0-4.89.031-5.543.264-5.633.145-.055 5.994-.101 12.997-.101h12.733l.093-.375c.051-.206.071-1.35.045-2.542l-.048-2.166-15.042-.043-15.042-.042v-2.633c0-3.254.197-3.032-2.695-3.032h-2.296l-.046-2.542-.046-2.542-2.537-.046-2.537-.046-.046-2.287-.047-2.287-2.583-.084-2.583-.083-.084-2.22-.083-2.22-5.25-.03-5.25-.03-.083-2-.084-2-1.333-.083c-.733-.046-3.096-.035-5.25.025-4.617.127-4.167.282-4.167-1.434 0-1.699.216-1.591-3.18-1.591H76V107c0-2.422-.049-3.167-.208-3.167-.163 0-.188.702-.115 3.208m114.953.687c-.241.184-.294.57-.333 2.453l-.047 2.236-2.322.046c-2.919.059-2.793-.047-2.655 2.217.093 1.529.067 1.868-.169 2.228-.227.347-.235.425-.042.425.37 0 .438-.387.438-2.513 0-1.469.054-1.991.208-2.004.115-.009 1.159-.032 2.32-.051 2.77-.045 2.639.089 2.639-2.702v-2.23l1.625-.012c.893-.007 1.962-.072 2.375-.146.559-.099.178-.137-1.5-.149-1.615-.011-2.331.046-2.537.202m-122.019 9.55c-.061.061-.111.983-.111 2.05 0 1.322-.066 2.009-.208 2.159-.168.179-.16.207.041.145.202-.061.26-.479.297-2.139.032-1.394.113-2.105.25-2.192.125-.08.134-.13.023-.132a.464.464 0 0 0-.292.109m111.48.094c-.222.125-.258.758-.258 4.632v4.488l-2.708.046-2.708.045-.046 2.538-.046 2.538-3.038.046-3.037.045-.046 2.618-.046 2.618-1.204.048-1.204.049-.046 2.204-.047 2.204-2.37.046-2.37.046v4.334l5.291.044 5.292.044v-2.163c0-2.72-.384-2.509 4.555-2.509 4.594 0 4.112-.333 4.112 2.843v2.315l2.458.046 2.458.046.045 3.959.045 3.958h2.485c2.277 0 2.494-.026 2.585-.31.244-.77.038-.845-2.467-.894l-2.359-.046-.084-3.413-.083-3.413-.83-.139c-.456-.076-1.559-.115-2.45-.087l-1.621.052-.094-2.417a417.129 417.129 0 0 1-.143-4.416c-.027-1.1-.064-2.094-.081-2.209-.024-.162-1.326-.208-5.869-.208h-5.837l.046-2.542.046-2.541 2.912-.046c1.603-.025 2.986-.119 3.075-.208.091-.092 1.271-.163 2.695-.163 3.003 0 2.768.223 2.726-2.583-.016-1.1.011-2.113.062-2.25.05-.138.142-2.257.205-4.709l.112-4.458h2.176c1.197 0 2.144-.03 2.106-.067-.147-.142-4.151-.197-4.395-.061m-104.799 3.91c-.161.041-.292.145-.292.23 0 .089-1.239.155-2.922.155-3.44 0-3.116-.273-3.142 2.637l-.019 2.113-2.556.083c-3.2.104-3.028-.063-3.028 2.949v2.218l-2.125.002c-2.752.004-2.599-.133-2.744 2.449-.228 4.064-.349 20.382-.151 20.382.13 0 .171-2.066.143-7.208-.022-3.965-.016-7.977.013-8.917l.053-1.708h4.811v-2.407c0-1.425.068-2.449.167-2.51.098-.06.167-1.018.167-2.31 0-2.777-.186-2.607 2.833-2.607 3.018 0 2.833.17 2.833-2.597v-2.198l.518-.076c.284-.042 1.578-.069 2.874-.061 2.086.014 2.394-.02 2.667-.293.338-.338 17.153-.264 17.516.077.087.082 1.225.148 2.528.148 3.158 0 2.897-.208 2.9 2.31.003 2.763-.171 2.59 2.699 2.69l2.382.084.046 2.187c.055 2.593.278 2.39-2.638 2.394-2.431.003-2.325-.113-2.325 2.522 0 2.891.239 2.647-2.595 2.647-2.11 0-2.411.034-2.545.291-.177.342-.37 17.542-.196 17.542.192 0 .335-4.842.335-11.357.001-4.733.048-6.125.209-6.184.115-.042 1.219-.093 2.453-.114 2.766-.045 2.505.204 2.508-2.397.003-2.748-.185-2.547 2.492-2.663 2.79-.121 2.672-.002 2.672-2.702 0-2.698.138-2.567-2.75-2.622l-2.333-.044-.144-2.371-.144-2.371-.522-.081c-1.674-.259-21.792-.536-22.648-.312m-11.745.352c-.14.089-.218.834-.25 2.373l-.047 2.243-2.327.047c-2.795.056-2.584-.178-2.587 2.856-.003 3.067.118 2.995.188-.111l.053-2.375H60.8c3.036 0 2.867.157 2.867-2.668v-2.322l2.125-.052 2.125-.053-2.084-.033c-1.145-.019-2.174.024-2.286.095m182.582-.012c.392.035.992.035 1.334-.001.341-.036.02-.064-.713-.064-.733.001-1.013.03-.621.065m2.539.13c.163.196.191.75.114 2.278-.138 2.747-.231 2.637 2.224 2.637H253v21.323l-2.125.047-2.125.046-.007 3.25-.008 3.25.091-3.166.091-3.167 2.083-.083 2.083-.084v-21.5l-2.041-.046-2.042-.047v-2.394c0-2.066-.037-2.408-.274-2.499-.231-.088-.24-.064-.058.155M53.764 131.774c-.082.213-.056.233.118.088.126-.104 1.082-.207 2.212-.237l1.989-.053-2.107-.036c-1.821-.031-2.121.001-2.212.238m51.52-.122c-1.255.134-1.278.186-1.281 2.806l-.003 2.209h-2.5c-2.275 0-2.499.026-2.487.291.008.175.047.208.097.084.062-.153.715-.209 2.446-.211 2.906-.003 2.694.184 2.694-2.386 0-2.694-.05-2.641 2.414-2.575l1.753.047.046 2.239c.058 2.765-.03 2.655 2.178 2.714l1.776.047.049 2.916c.039 2.277-.01 3.17-.226 4.073-.232.967-.267 1.89-.217 5.666l.06 4.511-6.125.044c-4.04.028-6.125-.014-6.125-.125a.17.17 0 0 1 .17-.169c.094 0 .128-.168.076-.375-.249-.992-.014-1.043 4.568-.982 3.878.052 4.205.033 4.573-.256.928-.73.221-.818-4.387-.55-3.266.19-4.772.054-5.206-.468-.153-.183-.242-1.625-.328-5.269-.064-2.759-.179-5.841-.255-6.85-.093-1.23-.119.223-.078 4.417.033 3.438.13 6.658.214 7.156.084.498.153 1.566.153 2.375v1.469H112.5l.01-.625c.006-.344.042-1.6.079-2.792.038-1.191.09-4.904.115-8.25l.046-6.083-1.881-.047c-2.302-.058-2.267-.012-2.102-2.777.154-2.574.038-2.65-3.483-2.274m-51.391 2.015c0 .87.029 1.227.063.791.034-.435.034-1.148 0-1.583-.034-.435-.063-.079-.063.792m8.996-.292c.052.481.099 1.344.104 1.917l.009 1.041h-1.918c-1.924 0-2.791-.302-1.042-.364l.875-.031-.875-.061c-1.191-.083-1.112-.377.101-.377h.976l.095-1.266c.144-1.901.367-1.953.589-.139.16 1.306.29 1.17.448-.47.136-1.406.498-1.548.638-.25m-9.222 3.208c0 .417-.001.417-1.653.417-1.595 0-2.18.083-2.181.309 0 .059.9.085 2 .056l2-.051v-.574c0-.315-.037-.573-.083-.573-.046 0-.083.187-.083.416m-3.756 9.5c0 4.675.021 6.612.047 4.304a463.14 463.14 0 0 0 0-8.5c-.026-2.367-.047-.479-.047 4.196m157.753-1.041c.003.356-.305.386-.437.041-.153-.399.083-.889.279-.578.086.135.157.376.158.537m1.086 1.791c0 .362-.65.312-.721-.055-.045-.237.029-.293.331-.25.215.03.39.168.39.305m-17.803.109c-.063.062-.114 1.559-.114 3.325 0 3.789-.279 3.439 2.714 3.395 2.604-.038 2.453-.064 2.453.421v.417h11v-1.25c0-1.181-.021-1.251-.375-1.264-.206-.008-1.4-.027-2.652-.042-2.756-.033-2.506.219-2.625-2.651l-.098-2.376-5.095-.044c-2.802-.025-5.146.007-5.208.069m20.664 2.819c.123.32-.186.689-.352.42-.062-.099-.558-.181-1.102-.181-1.315 0-1.274-.301.051-.377.573-.032 1.101-.073 1.172-.091.072-.018.176.086.231.229m-3.4 1.196c-.07.183-.12.19-.219.03a.57.57 0 0 1-.037-.444c.071-.183.121-.19.219-.03a.566.566 0 0 1 .037.444m-15.544.793c0 .173.173.25.561.25.308 0 .743.144.966.319.223.175.627.348.897.382.271.035-.221.124-1.093.198-2.253.191-2.428.151-2.359-.547.033-.343-.032-.621-.167-.706-.141-.09.036-.142.486-.143.52-.002.709.064.709.247m50.666.786c0 .496-.789.631-2.125.364-.88-.176-.526-.705.518-.775 1.576-.106 1.607-.098 1.607.411m-4.5-.119c0 .141.15.25.344.25.188 0 .296.075.24.166-.147.237-.353.207-.655-.095-.297-.297-.343-.571-.095-.571.091 0 .166.112.166.25" fill="#744404"/></g></svg>